/* XPM */
static char *_02a5d4dec1644b5e3f72ccb004170ccD85tK79IEoeTcXRn[] = {
/* columns rows colors chars-per-pixel */
"80 80 155 2 ",
"   c None",
".  c black",
"X  c #140D0C",
"o  c #180F0F",
"O  c #19100F",
"+  c #161414",
"@  c #1C1211",
"#  c #1B1B1B",
"$  c #211715",
"%  c #251817",
"&  c #261C1B",
"*  c #2A1B19",
"=  c #311F1D",
"-  c #28201F",
";  c #31211F",
":  c #232323",
">  c #2C2423",
",  c #2F2827",
"<  c #2B2B2B",
"1  c #362422",
"2  c #3A2523",
"3  c #3F2826",
"4  c #332D2C",
"5  c #3D2B29",
"6  c #343434",
"7  c #3C3434",
"8  c #3C3B3B",
"9  c #412A27",
"0  c #462D2A",
"q  c #4B312E",
"w  c #443533",
"e  c #4D3533",
"r  c #403837",
"t  c #453C3C",
"y  c #4D3B39",
"u  c #533633",
"i  c #543936",
"p  c #5B3A37",
"a  c #573A38",
"s  c #5B3D3A",
"d  c #603F3C",
"f  c #64423E",
"g  c #68433F",
"h  c #464646",
"j  c #4E4746",
"k  c #4D4D4D",
"l  c #534442",
"z  c #584443",
"x  c #534B4B",
"c  c #5C4A48",
"v  c #5F514F",
"b  c #555555",
"n  c #5B5454",
"m  c #5C5C5B",
"M  c #674340",
"N  c #6B4541",
"B  c #6F4A46",
"V  c #624D4B",
"C  c #6A4E4B",
"Z  c #704844",
"A  c #734D4A",
"S  c #67504E",
"D  c #6D514E",
"F  c #75524E",
"G  c #635453",
"H  c #6E5350",
"J  c #675958",
"K  c #6C5D5C",
"L  c #745552",
"P  c #785653",
"I  c #735956",
"U  c #795956",
"Y  c #715C5A",
"T  c #7C5E5B",
"R  c #64605F",
"E  c #74605E",
"W  c #7E615E",
"Q  c #666666",
"!  c #6E6463",
"~  c #6E6E6E",
"^  c #766361",
"/  c #7B6563",
"(  c #746867",
")  c #786967",
"_  c #736A69",
"`  c #7C6D6B",
"'  c #7D706F",
"]  c #747474",
"[  c #7D7574",
"{  c gray47",
"}  c #7B7B7B",
"|  c #7D7D7D",
" . c gray50",
".. c #7D7A79",
"X. c #816663",
"o. c #826866",
"O. c #836A68",
"+. c #836B69",
"@. c #85716E",
"#. c #807270",
"$. c #817472",
"%. c #837473",
"&. c #827573",
"*. c #837473",
"=. c #897573",
"-. c #857877",
";. c #877876",
":. c #877876",
">. c #8A7977",
",. c #837A79",
"<. c #817B7A",
"1. c #877E7D",
"2. c #857F7E",
"3. c #837C7B",
"4. c #887B7A",
"5. c #8B7E7D",
"6. c #8B7C7B",
"7. c #83807F",
"8. c #8D807F",
"9. c gray51",
"0. c #878080",
"q. c gray52",
"w. c #848484",
"e. c #848483",
"r. c #8A8281",
"t. c #8A8382",
"y. c #8B8584",
"u. c #8E8685",
"i. c #8C8484",
"p. c #898989",
"a. c gray54",
"s. c #8F8988",
"d. c #8E8E8E",
"f. c gray56",
"g. c #898989",
"h. c #908281",
"j. c #928887",
"k. c #938B8A",
"l. c #938D8C",
"z. c #948C8C",
"x. c #929292",
"c. c #939393",
"v. c #979190",
"b. c gray58",
"n. c #949393",
"m. c #9A9393",
"M. c #9C9897",
"N. c #989898",
"B. c gray60",
"V. c #9D9D9D",
"C. c gray62",
"Z. c #9B9B9B",
"A. c #A09F9F",
"S. c #A4A4A4",
"D. c #A4A4A4",
/* pixels */
"                                        . . . . . . . . . . . . . . . . . . . . . . . . . . . . . . . . . . . . . . . .                                         ",
"                                        . . . . . . . . . . . . . . . . . . . . . . . . . . . . . . . . . . . . . . . .                                         ",
"                                        . . . . . . . . . . . . . . . . . . . . . . . . . . . . . . . . . . . . . . . .                                         ",
"                                        X X X X X X X X X X X X o X o X X X o X X o X X o X o X X X X o X X X X o X o X X                                       ",
"                                      O $ % * * * * * * * * * * * * * * * * * * * * * * * % * * * * * * * * * * * * * $ o X                                     ",
"                        . . . . . . X $ * ; 3 9 9 9 9 9 2 9 9 9 9 9 9 9 9 9 3 3 3 3 3 3 9 9 9 9 9 9 9 9 2 9 9 9 9 9 1 = % X . . . . . .                         ",
"                      . . . . . . . X % ; 0 p u u u u u u u u u q u u u u u u u d u u p u u u u u u u u u u u u u u 0 2 * O . . . . . . .                       ",
"                    . . . . . . . . X * 3 u Z Z Z Z Z Z Z Z Z Z Z Z Z Z Z Z Z Z Z Z g Z Z g Z Z Z Z Z Z Z Z Z Z Z Z p 0 = @ . . . . . . . .                     ",
"                    # # : # # + O X % ; q p Z Z Z Z Z Z Z Z Z Z Z Z Z Z Z Z Z Z Z Z Z Z Z Z Z Z Z Z Z Z Z Z Z Z Z Z d q 2 * X X X + + # + # +                   ",
"                  : < 6 8 7 4 , - % ; 9 q p Z Z Z Z Z Z Z Z Z Z Z Z Z Z Z Z Z Z Z Z Z Z Z Z Z Z Z Z Z Z Z Z Z Z Z Z d u 0 = * * > , < 6 < < : +                 ",
"              . # < h k m b j t w ; 9 q p f g Z Z Z Z Z Z Z Z Z Z Z Z Z Z Z Z Z Z Z Z Z Z Z Z Z Z Z Z Z Z Z Z Z Z Z d d e 0 = 9 7 t h k h 6 < # .               ",
"            . . # 8 k Q } _ K n l q u i f f g Z Z Z Z Z Z Z Z Z Z Z Z Z Z Z Z Z Z Z Z Z Z Z Z Z Z Z Z Z Z Z Z Z Z Z d d p u q i l c m Q b k 6 : . .             ",
"          . . . # 8 m } S.v.5.` I f f g g Z Z Z Z Z Z Z Z Z Z Z Z Z Z Z Z Z Z Z Z Z Z Z Z Z Z Z Z Z Z Z Z Z Z Z Z Z N N M f f C Y _ &.p.~ b 8 : . . .           ",
"          # # # 8 b Q 9.S.v.5.+.I f f g g N Z Z Z Z Z Z Z Z Z Z Z Z Z Z Z Z Z Z Z Z Z Z Z Z Z Z Z Z Z Z Z Z Z Z Z Z Z N M f f C Y ) &.a.{ m k 6 # + # +         ",
"        : 6 8 8 k Q { a.S.v.5.` I f g g g Z Z Z Z Z Z Z Z Z Z Z Z Z Z Z Z Z Z Z Z Z Z Z Z Z Z Z Z Z Z Z Z Z Z Z Z Z N N g f f C Y ) ..p.{ Q b h 6 6 < : #       ",
". . . # 6 8 k m Q { w.v.S.v.6.` I f g g g N Z Z Z Z Z Z Z Z Z Z Z Z Z Z Z Z Z Z Z Z Z Z Z Z Z Z Z Z Z Z Z Z Z Z Z Z N N N f f C Y ) [ a.| ] Q m k 8 8 < # . . . ",
". . . : 6 b Q } 9.a.c.B.D.v.8.` I f f M N N Z Z Z Z Z Z Z Z Z Z Z Z Z Z Z Z Z Z Z Z Z Z Z Z Z Z Z Z Z Z Z Z Z Z Z Z N N N f f C Y _ &.a.9.| ] ~ Q b h 6 : . . . ",
". . . # 8 m } D.S.S.D.D.D.v.6.` I f f g g N Z Z Z Z Z Z Z Z Z Z Z Z Z Z Z Z Z Z Z Z Z Z Z Z Z Z Z Z Z Z Z Z Z Z Z Z Z N g g f C Y ) &.a.p.p.p.p.a.~ b 8 : . . . ",
". . . # 8 m } D.S.S.S.S.D.v.6.+.I f f g N N Z Z Z Z Z Z Z Z Z Z Z Z Z Z Z Z Z Z Z Z Z Z Z Z Z Z Z Z Z Z Z Z Z Z Z Z N N g f f C Y ) ..p.p.p.p.p.a.~ b 8 : . . . ",
". . . : 8 m } D.S.S.S.S.D.v.5.` I f f f N N Z Z Z Z Z Z Z Z Z Z Z Z Z Z Z Z Z Z Z Z Z Z Z Z Z Z Z Z Z Z Z Z Z Z Z Z N N g f f C Y ) [ p.p.p.p.p.a.~ b 8 : . . . ",
". . . # 8 m | S.S.S.S.S.D.v.7.` I f f g N N Z Z Z Z Z Z Z Z Z Z Z Z Z Z Z Z Z Z Z Z Z Z Z Z Z Z Z Z Z Z Z Z Z Z Z Z N N g f f C Y ) [ p.p.p.p.p.a.~ b 8 : . . . ",
". . . : 8 m | S.S.S.S.S.D.v.6.+.I f f g N N Z Z Z Z Z Z Z Z Z Z Z Z Z Z Z Z Z Z Z Z Z Z Z Z Z Z Z Z Z Z Z Z Z Z Z Z N N N f f C Y ) &.a.p.p.p.p.a.~ b 8 : . . . ",
". . . # 8 m } D.S.S.S.S.D.v.6.+.I d g g N N Z Z Z Z Z Z Z Z Z Z Z Z Z Z Z Z Z Z Z Z Z Z Z Z Z Z Z Z Z Z Z Z Z Z Z Z N N M f f C Y ) [ p.p.p.p.p.a.~ b 8 : . . . ",
". . . : 8 b { C.C.C.C.A.A.z.6.) I f g g N N Z Z Z Z Z Z Z Z Z Z Z Z Z Z Z Z Z Z Z Z Z Z Z Z Z Z Z Z Z Z Z Z Z Z Z Z N N N f f C Y ` <.d.d.d.d.d.d.] b 8 : . . . ",
". . . # 8 b ] B.B.B.B.B.B.j.-.) H f M M g N Z Z Z Z Z Z Z Z Z Z Z Z Z Z Z Z Z Z Z Z Z Z Z Z Z Z Z Z Z Z Z Z Z Z Z Z N N g g f D Y +.7.v.b.c.c.c.c.{ m h : . . . ",
". . . # 6 b ~ b.b.b.b.b.n.u.&.^ H f f f g B Z Z Z Z Z Z Z Z Z Z Z Z Z Z Z Z Z Z Z Z Z Z Z Z Z Z Z Z Z Z Z Z Z Z Z Z Z N N f f D E [ i.N.N.N.N.N.b.} m 8 : . . . ",
". . . # 8 k Q d.f.f.f.f.d.7.[ ^ H f f M g Z Z Z Z Z Z Z Z Z Z Z Z Z Z Z Z Z Z Z Z Z Z Z Z Z Z Z Z Z Z Z Z Z Z Z Z Z Z N g f f D W &.u.C.C.V.V.V.C. .Q h < . . . ",
". . . # 6 k Q p.p.p.p.a.p.<.` E H f f M g g Z Z Z Z Z Z Z Z Z Z Z Z Z Z Z Z Z Z Z Z Z Z Z Z Z Z Z Z Z Z Z Z Z Z Z Z N N N f f D / :.k.D.D.D.D.D.S.q.Q h < . . . ",
". . . # 6 k Q p.p.p.p.p.p.| ~ E G f f g M B Z Z Z Z Z Z Z Z Z Z Z Z Z Z Z Z Z Z Z Z Z Z Z Z Z Z Z Z Z Z Z Z Z Z Z Z N N g g f D / :.z.D.D.D.D.D.S.q.Q h < . . . ",
". . . + 6 k Q p.p.p.p.p.a.<.` E D f f g g N Z Z Z Z Z Z Z Z Z Z Z Z Z Z Z Z Z Z Z Z Z Z Z Z Z Z Z Z Z Z Z Z Z Z Z Z N N M g f D / :.k.D.D.D.D.D.S.q.Q k < . . . ",
". . . # 6 k Q p.p.p.p.p.a.<.` E H d f g g N B Z Z Z Z Z Z Z Z Z Z Z Z Z Z Z Z Z Z Z Z Z Z Z Z Z Z Z Z Z Z Z Z Z Z Z N N g g f H ) :.k.D.D.D.D.D.D.q.Q h < . . . ",
". . . # 6 k Q p.p.p.p.p.a.<.` Y H f f g g B Z Z Z Z Z Z Z Z Z Z Z Z Z Z Z Z Z Z Z Z Z Z Z Z Z Z Z Z Z Z Z Z Z Z Z Z N N g g f H / -.k.D.D.D.D.D.D.q.Q h < . . . ",
". . . # 6 k Q p.p.p.p.p.p.| _ E D d f g N N Z Z Z Z Z Z Z Z Z Z Z Z Z Z Z Z Z Z Z Z Z Z Z Z Z Z Z Z Z Z Z Z Z Z Z Z N N g g f D / :.z.D.D.D.D.D.D.q.Q h < . . . ",
". . . # 6 k Q p.p.p.p.p.p.| ' E H f f g N N N N N Z Z Z Z Z Z Z Z Z Z Z Z Z Z Z Z Z Z Z Z Z Z Z Z Z Z Z Z Z Z N Z N N g g g f H / :.k.D.D.D.D.D.D.q.Q h < . . . ",
". . . # 6 k Q p.p.p.p.p.p.7.' E H f f f g N N N N Z N Z Z Z Z Z Z Z Z Z Z Z Z Z Z Z Z Z Z Z Z Z Z Z Z Z Z Z Z N N N N g f g f D / :.k.D.D.D.D.D.D.q.Q h < . . . ",
". . . # 6 k Q p.p.p.p.p.8.<.) E S f f f g g g g N N Z Z Z Z Z Z Z Z Z Z Z Z Z Z Z Z Z Z Z Z Z Z Z Z Z Z Z Z N N N g g g f f f H / -.k.D.D.D.D.D.D.q.Q k < . . . ",
". . . # 6 k Q p.p.p.p.p.p.7.) E H f f f f f f g N N N Z Z Z Z Z Z Z Z Z Z Z Z Z Z Z Z Z Z Z Z Z Z Z Z Z Z Z N N g f f f f f d D / :.z.D.S.S.S.S.D.q.Q k < . . . ",
". . . # 6 k Q p.p.p.p.p.p.7.` E H f d f f d f f g g N Z Z Z Z Z Z Z Z Z Z Z Z Z Z Z Z Z Z Z Z Z Z Z Z Z Z N N g g f f d f f f D / :.z.D.S.S.S.S.D.q.Q h < . . . ",
". . . # 6 b ~ d.d.d.d.d.d.7.[ W G f f f f f f f g g N Z Z N N N N Z Z F P U U U U U U L F F Z N N N N Z N N N g f f f f f f f H / :.k.S.S.S.S.S.D.q.Q h < . . . ",
". . . # 6 k ~ c.c.c.c.c.b.8.[ E H d f d d f f f g g N N N N N N N D F U W +.+.+.O.O.+.W U P D N N N N N N g g g f f d f f f f H / -.k.S.S.S.S.S.D.q.Q h < . . . ",
". . . # 8 b ] N.N.N.N.N.N.s.*.W Y f f f d d f f f f f N g g g g g D L W +.6.6.>.6.>.>.=./ T F g g g g g g f f f f d f d f d f D / :.z.S.S.S.S.S.D.q.Q h < . . . ",
". . . # 8 b ] C.C.C.V.V.B.l.7./ H f d f f f d f f f f f f f f f g F E +.>.z.z.v.v.z.v.6.@.W L f g f f f g f f f f f f f f f f D / -.k.S.S.S.S.S.D.q.Q h < . . . ",
". . . : 8 m } D.D.D.D.D.D.v.8.` I f f f f d f f f d f f f f f f f F / :.k.D.D.D.D.D.D.v.6.` I g f f f f f f f f d f f f f f f D / -.k.D.S.S.S.S.D.q.Q k < . . . ",
". . . # 8 b { C.C.C.C.C.C.v.8.' E D C C C C C C C C C C D D D D H E @.8.v.D.D.D.D.D.D.m.u.:.) F D D C C C C C C S S C C C C C E ` 4.s.C.C.C.C.C.C.9.Q h : . . . ",
". . . # 8 b { B.M.B.B.B.N.f.8.<.) E E E E E E R Y Y Y Y Y E W ^ ) @.6.j.m.D.D.D.D.D.D.A.h.6.=.X.W E E E E E E E E E I E Y E I E #.5.s.N.B.B.B.B.B.| m h : . . . ",
". . . # 6 b ~ c.b.b.b.b.b.d.8.7.[ ) E ) E ) ( W ) ) ) ) ` ` ' *.:.7.j.v.M.D.D.D.D.D.D.A.m.z.8.=.&.&.' ` ) E E ( E ) E ) ( ( ) ' <.r.s.b.b.b.b.b.b.{ m h : . . . ",
". . . # 6 k ~ d.d.f.d.d.d.d.8.7.7.&.[ [ &.[ [ <.[ [ [ ..-.5.7.j.z.v.m.M.C.D.D.D.D.D.D.A.A.m.v.j.8.8.8.7.[ <.<.[ [ ..[ <.[ [ <.7.2.e.a.d.f.f.d.d.d.] b 8 : . . . ",
". . . # 6 k Q p.g.g.g.p.p.p.p.p.p.p.g.g.g.p.p.p.a.a.a.p.d.b.N.C.D.D.D.D.D.D.D.D.D.D.D.D.D.D.D.D.A.N.n.d.p.p.p.g.g.a.p.a.a.p.p.y.p.a.a.p.a.a.p.p.a.] b 8 : . . . ",
". . . # 6 k Q p.p.p.p.p.p.q.9.7.3...............<.| 3.2.u.k.v.B.S.C.N.c.d.q.q.q.q.q.q.a.f.b.V.D.C.N.l.8.7.7.,.......{ ....{ ..,. .7.q.p.p.p.p.p.p.~ b 8 : . . . ",
". . . # 6 k Q p.p.p.p.p.p.9.3.{ ] _ ( ( ( ( ( _ ) ` ` ` -.i.l.N.S.B.a.9.{ Q Q Q Q Q Q ]  .a.b.D.V.v.s.7.' ' ' ) _ ) _ ( ( ( ) ~ [ ..7.a.p.p.p.p.p.~ b 8 : . . . ",
". . . # 6 k Q p.p.p.p.p.a.7...) ! J J J J J J K K K ^ ^ @.6.j.m.S.c. .~ m h h h h h h m ~ } a.D.M.v.8.*.W E E I K J J J J J J E _ [ | p.p.p.p.p.a.~ b 8 : . . . ",
". . . # 6 k Q p.p.p.p.p.p.3.] ! J c c c c c c c V H L U X.=.8.m.S.a.{ m h < < < < < < 8 b ~ q.D.M.8.>.+.I H D C S c c c c c c G ! ) ..p.p.p.p.p.a.~ b 8 : . . . ",
". . . # 6 k Q p.p.p.p.p.p...( J c e e e e e e i s d M Z U O.6.z.S.q.Q k < . . . . . . # 8 m } D.m.8.@.X.g g f d a e e e e e e z G ! ] a.p.p.p.p.p.~ b 8 : . . . ",
". . . + 6 k Q p.p.p.p.p.p.{ ( J c e e e i e i s s f M Z P X.@.6.v.2.Q x 8 # # : : # : 6 j Q [ m.8.=.o.U g g g g s i e u e e e z G ! [ y.p.p.p.p.a.~ b 8 : . . . ",
". . . # 6 k Q p.p.p.p.p.a..._ J c e e e i a s s f M N Z F T o.=.h.&._ J b 8 8 8 8 8 8 k n ! ' h.>.O.X.P A g g g d s a a u u e z G ! [ p.p.p.p.p.p.~ b 8 : . . . ",
". . . # 6 k Q p.p.p.p.p.p...( J c e i i a s s f M M N Z A P T X.@.` _ ! Q m m m m m m K ! ) ) +.O.X.P A g g A g f d s a i y e z G ^ ] p.p.p.p.p.p.~ b 8 : . . . ",
". . . # 6 k Q p.p.p.p.p.p...( J c e u a s s M N Z g Z Z A A P U T / ) ` [ ..| ..-.<...[ [ ) T T U P F F Z N N N g f f s a i e z G ! ] p.p.p.p.p.a.~ b 8 : . . . ",
". . . # 6 k Q p.p.p.p.p.p...( J c e i a d M Z Z Z Z Z Z Z Z Z Z Z U O.6.z.D.D.D.D.A.D.v.h.@.X.Z Z Z Z Z Z Z Z Z B B g f s i e z G ^ ] u.p.p.p.p.a.~ b 8 : . . . ",
". . . # 6 k Q a.p.p.p.p.p...( J c e u s d M Z Z Z Z Z Z Z Z Z Z Z P X.@.6.m.v.m.A.v.m.h.=.X.U Z Z Z Z Z Z Z Z Z N Z g f s i e z G ! ] p.p.p.p.p.a.~ b 8 : . . . ",
". . . # 6 k Q p.p.p.p.p.p.{ _ J c e i s d M Z Z Z Z Z Z Z Z Z Z Z F T X.=.h.h.h.8.8.8.=.O.X.P Z Z Z Z Z Z Z Z Z Z Z g g s i e z G ! [ a.p.p.p.p.a.~ b 8 : . . . ",
". . . # 6 k Q p.p.p.p.p.p...( J c e u s d d Z Z Z Z Z Z Z Z Z Z Z A F X.X.+.@.@.@.@.@.X.X.U F Z Z Z Z Z Z Z Z Z Z Z M f s i e z G ! ] a.p.p.p.p.p.~ b 8 : . . . ",
". . . # 6 k Q p.p.p.p.p.p...( J c e u s d d Z Z Z Z Z Z Z Z Z Z Z A A F U X.U X.T T X.P P F A Z Z Z Z Z Z Z Z Z Z B M d d i e z G ! [ y.p.p.p.p.p.~ b 8 : . . . ",
". . . # 6 k Q p.p.p.p.p.a.{ ( J c e u d d Z Z Z Z Z Z Z Z Z Z Z Z Z Z Z Z Z Z Z Z Z Z Z Z Z Z Z Z Z Z Z Z Z Z Z Z Z N f s i e z G ! ] p.p.p.p.p.a.~ b 8 : . . . ",
". . . # 6 k Q p.p.p.p.p.p...( J c e u d d d Z Z Z Z Z Z Z Z Z Z Z Z Z Z Z Z Z Z Z Z Z Z Z Z Z Z Z Z Z Z Z Z Z Z Z Z M f s i e z G ^ ] p.p.p.p.p.a.~ b 8 : . . . ",
". . . # 6 k Q p.p.p.p.p.p.[ ( J c e u s f f Z Z Z Z Z Z Z Z Z Z Z Z Z Z Z Z Z Z Z Z Z Z Z Z Z Z Z Z Z Z Z Z Z Z Z Z N d s a e z G ! [ y.a.p.p.p.p.~ b 8 : . . . ",
". . . + 6 k Q p.p.p.p.p.a..._ J c e i a s N Z Z Z Z Z Z Z Z Z Z Z Z Z Z Z Z Z Z Z Z Z Z Z Z Z Z Z Z Z Z Z Z Z Z Z Z M f s i e z G ! ] p.a.p.p.p.a.~ b 8 : . . . ",
". . . # 6 k Q a.p.p.p.p.a..._ J c e i a d f Z N Z Z Z Z Z Z Z Z Z Z Z Z Z Z Z Z Z Z Z Z Z Z Z Z Z Z Z Z Z Z Z Z Z Z M f s a e z G ! ] a.p.p.p.p.a.~ b 8 : . . . ",
". . . # 6 k Q p.p.p.p.p.a.[ ( J c e i s d N Z B Z Z Z Z Z Z Z Z Z Z Z Z Z Z Z Z Z Z Z Z Z Z Z Z Z Z Z Z Z Z Z Z Z Z M M s a e z G ! ] s.p.p.p.p.a.~ b 8 : . . . ",
". . . # 6 k Q p.p.p.p.p.p..._ J c e i i s f f N N N N Z Z Z Z Z Z Z Z Z Z Z Z Z Z Z Z Z Z Z Z Z Z Z Z Z Z Z Z g M M f s s a e z G ! ] a.p.p.p.p.a.~ b 8 : . . . ",
". . . + 6 k Q p.p.p.p.p.p...( J c e i i a s f f N N N Z Z Z Z Z Z Z Z Z Z Z Z Z Z Z Z Z Z Z Z Z Z Z Z Z Z g Z g M f s s a u e z G ! [ a.p.p.p.p.a.~ b 8 : . . . ",
". . . # 6 k Q p.p.p.p.a.p.[ _ J c e e i i i s f M M N Z Z Z Z Z Z Z Z Z Z Z Z Z Z Z Z Z Z Z Z Z Z Z Z Z Z Z g d f s s a u e e z G ! [ y.p.p.p.p.a.~ b 8 : . . . ",
". . . # 6 k Q p.p.p.p.a.a..._ J c e e e i i i s s f N Z Z Z Z Z Z Z Z Z Z Z Z Z Z Z Z Z Z Z Z Z Z Z Z Z Z N g d s i i e i e e z G ! ] p.p.p.p.p.a.~ b 8 : . . . ",
". . . # 6 k Q a.a.a.a.p.y...( J c e e e e e e u s d g Z Z Z Z Z Z Z Z Z Z Z Z Z Z Z Z Z Z Z Z Z Z Z Z Z Z M f s u e e e e e e z G ^ [ p.a.a.a.a.a.~ b 8 : . . . ",
". . . + < h b ~ ~ ~ ~ ~ ~ Q n j y 5 5 5 5 5 5 0 q e u s p p s p p p p p d p p p p p p p p p p p p p p p p u u q 0 5 9 5 3 5 5 w l x J ~ ~ ~ ~ ~ ~ m k 6 # . . . ",
". . . # < 8 h b b b b b b k h r 4 1 ; ; 1 - - 1 1 3 3 0 0 0 0 0 0 0 0 0 0 0 0 0 0 0 0 0 0 0 0 0 0 0 0 0 0 0 3 2 1 * 1 > 1 > 1 4 7 t k b b b b b b k 8 6 # . . . ",
"      + : < 6 8 8 8 8 8 8 7 4 , & $ $ $ $ $ $ & & * * = = = = = = = = = = = = = = ; = = = = = = = = = = ; * * * & $ $ $ $ $ @ & > < 6 8 8 8 8 8 8 8 < : #       ",
"        + # : : : : : : : # # + + X X X X X X X o o O @ @ @ @ @ @ @ @ @ @ @ @ @ $ @ @ @ @ @ @ @ o $ @ @ @ O O o X X X X X X X + + # # : : : : : : # # #         ",
"          . . . . . . . . . . . . . . . . . . . . . . . . . . . . . . . . . . . . . . . . . . . . . . . . . . . . . . . . . . . . . . . . . . . . . .           ",
"          . . . . . . . . . . . . . . . . . . . . . . . . . . . . . . . . . . . . . . . . . . . . . . . . . . . . . . . . . . . . . . . . . . . . . .           ",
"          . . . . . . . . . . . . . . . . . . . . . . . . . . . . . . . . . . . . . . . . . . . . . . . . . . . . . . . . . . . . . . . . . . . . . .           "
};
