/* XPM */
static char *_62f80acbb8a44c19619ad5e59a3596bfgDrUrtCphWmukpK[] = {
/* columns rows colors chars-per-pixel */
"80 80 159 2 ",
"   c None",
".  c black",
"X  c #130D0C",
"o  c #180F0F",
"O  c #19100F",
"+  c #161515",
"@  c #1C1211",
"#  c #1A1A1A",
"$  c #211716",
"%  c #241817",
"&  c #261B1A",
"*  c #2B1C1A",
"=  c #311F1D",
"-  c #28201F",
";  c #30211F",
":  c #232323",
">  c #2B2525",
",  c #2B2B2B",
"<  c #352423",
"1  c #392726",
"2  c #3B2827",
"3  c #342C2B",
"4  c #3E2B29",
"5  c #333333",
"6  c #3F3635",
"7  c #3B3B3B",
"8  c #402A27",
"9  c #442D2B",
"0  c #46302F",
"q  c #49312F",
"w  c #433636",
"e  c #4D3533",
"r  c #403837",
"t  c #463C3B",
"y  c #4A3D3C",
"u  c #513734",
"i  c #543936",
"p  c #5B3A37",
"a  c #573A38",
"s  c #5B3D3A",
"d  c #603F3C",
"f  c #4D403F",
"g  c #53413F",
"h  c #64413E",
"j  c #444444",
"k  c #484141",
"l  c #4D4D4D",
"z  c #534443",
"x  c #584443",
"c  c #514847",
"v  c #544A4A",
"b  c #5C4A48",
"n  c #59504F",
"m  c #555555",
"M  c #5C5352",
"N  c #5B5B5B",
"B  c #674340",
"V  c #6A4541",
"C  c #624D4B",
"Z  c #704844",
"A  c #67504E",
"S  c #6A524F",
"D  c #635554",
"F  c #6E5351",
"G  c #665A59",
"H  c #6C5D5C",
"J  c #715552",
"K  c #775956",
"L  c #785A57",
"P  c #725F5E",
"I  c #7C5E5B",
"U  c #75615F",
"Y  c #666666",
"T  c #6C6463",
"R  c #6E6867",
"E  c #6E6E6E",
"W  c #726565",
"Q  c #7C6563",
"!  c #706867",
"~  c #7F6866",
"^  c #726A69",
"/  c #7A6D6C",
"(  c #74706F",
")  c #7F706F",
"_  c #747373",
"`  c #7B7777",
"'  c #7A7777",
"]  c #797675",
"[  c #7A7473",
"{  c #7B7877",
"}  c gray47",
"|  c #7B7878",
" . c gray48",
".. c #7B7B7B",
"X. c #7C7878",
"o. c #7D7978",
"O. c #7C7979",
"+. c #7E7979",
"@. c #7F7A79",
"#. c #7D7A7A",
"$. c #7F7B7B",
"%. c #7F7C7B",
"&. c #7C7C7C",
"*. c gray49",
"=. c #7F7D7D",
"-. c gray50",
";. c #7D7978",
":. c #806967",
">. c #836C6A",
",. c #86706E",
"<. c #837473",
"1. c #877876",
"2. c #807A7A",
"3. c #817B7A",
"4. c #827B7B",
"5. c #837C7B",
"6. c #807D7D",
"7. c #807E7E",
"8. c #817F7F",
"9. c #847C7C",
"0. c #807D7C",
"q. c #8B7C7A",
"w. c #81807F",
"e. c #82807F",
"r. c #82807F",
"t. c #808080",
"y. c #818181",
"u. c #838181",
"i. c #828080",
"p. c gray51",
"a. c #838282",
"s. c #848281",
"d. c #848382",
"f. c gray52",
"g. c #858484",
"h. c #868585",
"j. c #868685",
"k. c #848281",
"l. c #888080",
"z. c #898281",
"x. c #8C8584",
"c. c #8D8685",
"v. c #898989",
"b. c #8E8E8E",
"n. c gray56",
"m. c #898989",
"M. c #908180",
"N. c #908988",
"B. c #928A89",
"V. c #948D8C",
"C. c #968E8D",
"Z. c #939393",
"A. c gray58",
"S. c #9A9292",
"D. c #989898",
"F. c gray60",
"G. c #9D9D9D",
"H. c gray62",
"J. c #A4A4A4",
/* pixels */
"                    . . . . . . . . . . . . . . . . . . . . . . . . . . . . . . . . . . . . . . . . . . . . . . . . . . . . . . . . . . . .                     ",
"                    . . . . . . . . . . . . . . . . . . . . . . . . . . . . . . . . . . . . . . . . . . . . . . . . . . . . . . . . . . . .                     ",
"                    . . . . . . . . . . . . . . . . . . . . . . . . . . . . . . . . . . . . . . . . . . . . . . . . . . . . . . . . . . . .                     ",
"                    + # # # # # # # # # # # # # # # # # + # # # # # # # # # # # + # # + # # # # # # # # + # # # # # # # # # # # # # # # # + +                   ",
"                  # : , 5 5 5 5 5 5 5 5 5 5 5 5 5 5 5 5 5 5 5 5 5 5 5 5 5 5 5 5 5 5 5 5 5 5 5 5 5 5 5 5 5 5 5 5 5 5 5 5 5 5 5 5 5 5 5 5 , , : #                 ",
"              . # , 5 j l l l l l l l l l l l l l l l l l l l l l l l l l l l l l l l l l l l l l l l l l l l l l l l l l l l l l l l l j 5 , # .               ",
"            . . # , 7 m Y Y Y Y Y Y Y Y Y Y Y Y Y Y Y Y Y Y Y Y Y Y Y Y Y Y Y Y Y R Y Y Y Y Y Y Y Y Y Y Y Y Y Y Y Y Y Y Y Y Y Y Y Y Y Y m l 5 : . .             ",
"          . . . # 5 l Y v.v.v.v.m.m.m.m.m.m.m.m.v.v.v.v.v.v.v.v.v.v.v.v.v.v.v.v.m.m.m.m.m.m.v.v.v.v.v.v.v.v.v.v.v.v.v.v.v.v.v.v.m.m.m.m.E m 7 : . . .           ",
"          + + # , j m E m.f.y.7...| ] [ ] ] _ | ] ] ` o.o.o.o.o.o.] O.o.O.o.o.@.O.o.o.o.3.o.o.o.2.` X.X.X.X.| | ] ] [ _ ] [ [ { -.t.g.m.] N l 5 + # + +         ",
"        # , , 5 j m Y _ m.y.O.[ ^ T T Y T G T T R R W ^ ^ ^ ^ ^ ^ ^ ^ ^ W W W ^ ^ ^ ^ ^ ^ W W ^ W ^ ^ ^ ! ! R R T T T T T Y T R ( | t.m. .Y m l 5 , , : +       ",
". . . + , 5 7 l m Y E } v.-.[ R G m n n m n n n M D D G G G G G G G G G G G G G G G G G G G G G G G G G G G D M M m b m n M n G Y [ ..v.*._ Y N l j 7 , # . . . ",
". . . + , j m Y E _ } -.v...E G n y y t y y y f z z x b b b b b b b b b b b b b b b b b b b b b b b b b b x z z y y y y t t t v D R ] v.p..._ E Y N j 5 : . . . ",
". . . # 5 l Y v.v.v.v.v.v.] T v y < < < < < < 1 4 8 w u e e e e q u e e e e u e q u e e e e e e e e e e e q 9 8 2 < < < 1 < < r v G _ v.v.v.v.v.m.E m 7 : . . . ",
". . . # 5 l Y v.v.v.v.v.v.] T M t < < < < < 1 4 4 9 q e e e e e e e e e e e e e e e e e e e e e e u e e e w 9 8 1 1 2 < < < < r l G E v.v.v.v.v.m.E m 7 : . . . ",
". . . # 5 l Y v.v.v.v.v.v.] Y b y < < 1 1 1 4 8 9 9 q e e e e e e u e e e e e e e q e e e e e e e e e e e 0 0 9 9 2 2 2 1 < < r v G _ v.v.v.v.v.v.E m 7 : . . . ",
". . . # 5 l Y v.v.v.v.v.v.] T m y < < 1 4 4 9 9 w 9 e e e e e e e e e e e e e e e u u e e e e e e e e e e e e w 9 9 8 2 2 < < w l G ^ v.v.v.v.v.v.E m 7 : . . . ",
". . . # 5 l Y v.m.m.m.m.m._ T v y < 1 2 4 8 0 w e e e e e e e e e e e e e e e e e e e e e e e e e e e e e e e e w 9 9 4 2 1 < r c G E m.m.m.m.m.m.E m 7 : . . . ",
". . . # 5 l Y v.m.m.m.m.v.{ Y M y < 1 2 9 w e e e e e e e e e e e e e e u e e e u e e e e e e u e e e e e e e e e e e 9 4 1 < r v G ( m.m.m.m.m.m.E m 7 : . . . ",
". . . # 5 l Y v.m.m.m.m.v.] T M y 1 2 9 9 q e e e e e u e e e e e e e e e e e e e e e e e e e e e e e u e e e e e e e 9 8 4 1 t v Y ^ m.m.m.m.m.m.E m 7 : . . . ",
". . . # 5 l Y v.m.m.m.m.v.} T M z 4 4 9 9 q e e e e e e e e e e e e e e e e e e e e e e e e e e e e e e e e e e e e q 0 0 8 4 y v H ] m.m.m.m.m.m.E m 7 : . . . ",
". . . + 5 l Y v.m.m.m.m.v.| R D z 9 9 9 e 0 e e e e e e e e e e e e e e e e e u e e e e e e e e e e e e e e e e e e e q 0 0 9 f b T [ m.v.v.v.v.m.E m 7 : . . . ",
". . . # 5 l Y v.m.m.m.m.v.O.R D x 9 w e e e e e e e e e e e e e e u e e e e e e e e e e e e e e e e e e e e e e e e e e q q 0 g n T [ m.v.v.v.v.b.E m 7 : . . . ",
". . . # 5 l Y v.m.m.m.m.v.O.^ G b e e e e e e e e e e e e u e e e e e e u e e e e e u e e e e e e e e e e e e e e e e e e e e z D R ] v.v.v.v.v.m.E m 7 : . . . ",
". . . # 5 m Y b.b.b.b.n.V.O.^ D z 4 4 4 4 4 4 4 4 4 4 4 4 4 4 4 4 4 4 4 4 4 4 4 4 4 4 4 4 4 4 4 4 8 4 4 9 4 4 4 4 4 4 4 4 8 8 y v H [ v.v.v.v.v.m.E m 7 : . . . ",
". . . # 5 m E Z.Z.Z.Z.Z.A.-.R m y < * < < * < < - ; ; ; ; ; ; ; > ; ; ; ; ; ; ; ; ; ; ; ; ; ; ; ; ; ; ; ; ; - < ; ; < * < - ; w l D ^ v.v.v.v.v.v.E m 7 : . . . ",
". . . # 7 m E D.D.D.D.D.D.y.R v 6 $ $ @ $ $ @ $ $ $ $ $ $ $ $ $ $ $ $ $ $ $ $ $ $ $ $ $ $ $ $ $ $ $ $ $ $ $ $ $ $ # $ $ $ $ $ 1 k N E v.v.v.v.v.v.E m 7 : . . . ",
". . . # 7 N _ G.G.G.G.G.H.p.Y v 5 X X X X X X X X X X X X X X X X X X X X X X X X X X X X X X X X X X X X X X X X X X X X X X > t m Y m.v.v.v.v.v.E m 7 : . . . ",
". . . : 7 N &.J.J.J.J.J.J.m.Y j , . . . . . . . . . . . . . . . . . . . . . . . . . . . . . . . . . . . . . . . . . . . . . . + 5 l Y m.v.v.v.v.v.E m 7 : . . . ",
". . . : 7 N -.J.J.J.J.J.J.f.Y j > . . . . . . . . . . . . . . . . . . . . . . . . . . . . . . . . . . . . . . . . . . . . . . # 5 l E b.b.b.b.b.b._ N 7 : . . . ",
". . . # 7 N } J.J.J.J.J.J.f.Y l , . . . . . . . . . . . . . . . . . . . . . . . . . . . . . . . . . . . . . . . . . . . . . . # 5 m E A.Z.Z.Z.Z.A.} N 7 : . . . ",
". . . : 7 Y } J.J.J.J.J.J.f.Y j , . . . . . . . . . . . . . . . . . . . . . . . . . . . . . . . . . . . . . . . . . . . . . . # 5 m _ D.D.D.F.D.F.} Y 7 , . . . ",
". . . # 7 N &.J.J.J.J.J.J.f.Y j > . . . . . . . . . . . . . . . . . . . . . . . . . . . . . . . . . . . . . . . . . . . . . . : 7 N _ G.G.G.G.G.G.-.Y j : . . . ",
". . . # 7 N ..J.J.J.J.J.J.p.Y j , . . . . . . . . . . . . . . . . . . . . . . . . . . . . . . . . . . . . . . . . . . . . . . : 7 N p.J.J.J.J.J.J.m.Y j , . . . ",
". . . : 7 N } H.H.H.H.H.H.p.Y j , . . . . . . . . . . . . . . . . . . . . . . . . . . . . . . . . . . . . . . . . . . . . . . # 7 N &.J.J.J.J.J.J.p.Y j , . . . ",
". . . # 7 m _ D.D.D.D.D.F.p.Y j : . . . . . . . . . . . . . . . . . . . . . . . . . . . . . . . . . . . . . . . . . . . . . . : 7 N &.J.J.J.J.J.J.m.Y j , . . . ",
". . . # 7 l E Z.A.A.A.A.A.} N 7 : . . . . . . . . . . . . . . . . . . . . . . . . . . . . . . . . . . . . . . . . . . . . . . # 7 N &.J.J.J.J.J.J.p.Y l , . . . ",
". . . # 5 m E b.n.n.n.n.n._ N 7 : . . . . . . . . . . . . . . . . . . . . . . . . . . . . . . . . . . . . . . . . . . . . . . # 7 N &.J.J.J.J.J.J.p.Y j , . . . ",
". . . # 5 l Y m.m.m.m.m.m.E m 7 : . . . . . . . . . . . . . . . . . . . . . . . . . . . . . . . . . . . . . . . . . . . . . . : 7 N &.J.J.J.J.J.J.m.Y j , . . . ",
". . . # 5 l Y m.m.m.m.m.m.E m 7 : . . . . . . . . . . . . . . . . . . . . . . . . . . . . . . . . . . . . . . . . . . . . . . # 7 N } H.H.H.H.H.F.p.Y j , . . . ",
". . . # 5 l Y m.m.m.m.m.m.E m 7 : . . . . . . . . . . . . . . . . . . . . . . . . . . . . . . . . . . . . . . . . . . . . . . # 7 m _ F.F.F.D.D.F.p.N j : . . . ",
". . . # 5 l Y v.v.v.v.v.v.E m 7 : . . . . . . . . . . . . . . . . . . . . . . . . . . . . . . . . . . . . . . . . . . . . . . # 7 l E A.A.A.A.A.A.} N j : . . . ",
". . . # 5 l Y v.v.v.v.v.v.E m 7 : . . . . . . . . . . . . . . . . . . . . . . . . . . . . . . . . . . . . . . . . . . . . . . # 5 m E n.n.n.n.n.b._ N 7 : . . . ",
". . . # 5 l Y v.v.v.v.v.v.E N 7 : . . . . . . . . . . . . . . . . . . . . . . . . . . . . . . . . . . . . . . . . . . . . . . # 5 l Y m.m.m.m.m.v.E m 7 : . . . ",
". . . # 5 l Y v.v.v.v.v.v._ N l 5 # # # # # # # + # # # # # # # : # : # # : # : # : # : # : # : # # # # # # + # # # # # # # # , 7 N E m.m.m.m.m.m._ m 7 : . . . ",
". . . + 5 l Y v.v.v.v.v.m.} Y N j 5 5 5 5 5 5 5 5 5 5 5 5 5 7 7 7 7 7 7 7 j 7 7 7 7 7 j 7 7 7 7 7 7 5 5 5 5 5 5 5 5 5 5 5 5 5 j l Y _ m.v.v.v.v.m.E m 7 : . . . ",
". . . # 5 l Y v.v.v.v.v.m.-._ Y N l l l l l l l l l l l l m m m N N N N N N N N Y N N N N N N N N N m m l l l l l l l l l l l m Y E } m.v.v.v.v.m.E m 7 : . . . ",
". . . # 5 l Y v.v.v.v.v.m.y.} _ _ Y Y Y Y Y Y Y Y Y Y Y E E _ _ -...............} } -.} -.} -.} _ _ E Y Y Y Y Y Y Y Y Y Y Y Y E _ } p.v.v.v.v.v.v.E m 7 : . . . ",
". . . # 5 l Y v.v.v.v.v.v.v.m.m.m.m.v.v.v.v.v.v.v.v.v.v.b.Z.F.G.J.J.J.J.J.J.J.J.J.J.J.J.J.J.J.J.H.F.A.n.v.v.v.v.v.v.v.v.v.v.v.v.m.m.m.v.v.v.v.v.v.E m 7 : . . . ",
". . . # 5 l Y v.v.v.v.v.v.f.d.e.5.o.o.o.o.o.@.@.5.5.5.5.r.M.B.V.S.S.S.S.S.S.S.S.S.S.S.S.S.S.S.S.C.V.M.x.7.4.4.4.4.o.@.@.@.{ o.@.e.y.d.v.v.v.v.v.v.E m 7 : . . . ",
". . . # 5 l Y v.v.v.v.v.v.y.5.o.( ^ ^ ^ ^ ^ W W ^ / / ) <.<.q.q.M.M.M.M.M.q.q.q.q.q.q.q.r.r.r.q.r.q.1.<.,./ / ^ W ^ W W ^ ^ ^ ( [ 5.d.v.v.v.v.v.v.( m 7 : . . . ",
". . . # 5 l Y v.v.v.v.v.v.e.] / T G G G G G G G H U U Q Q :.>.>.,.,.,.,.,.,.:.:.,.,.:.>.,.,.>.,.>.:.:.~ Q U U H H G G G G G G T W [ 4.m.v.v.v.v.v.E m 7 : . . . ",
". . . # 5 l Y v.v.v.v.v.v.5.( R G b b b b b b C C S F K L L I I :.:.Z :.:.:.:.:.:.:.:.:.:.:.:.U I I L K K J F A C b b b b b b D T ^ o.m.v.v.v.v.v.E m 7 : . . . ",
". . . # 5 l Y v.m.m.m.m.v.o.^ G b e e e e e e i s h h Z Z Z Z Z Z Z Z Z Z Z Z Z Z Z Z Z Z Z Z Z Z Z Z Z Z V h s i e e e u q e x D T [ m.v.v.v.v.v.E m 7 : . . . ",
". . . # 5 l Y v.m.m.m.m.v.O.^ G b e e u e i i s s h V Z Z Z Z Z Z Z Z Z Z Z Z Z Z Z Z Z Z Z Z Z Z Z Z Z Z V h d s i u u e u e x D W [ m.v.v.v.v.m.E m 7 : . . . ",
". . . # 5 l Y v.m.m.m.m.m.o.^ G b e u u i i p s h h V Z Z Z Z Z Z Z Z Z Z Z Z Z Z Z Z Z Z Z Z Z Z Z Z Z Z V V h h p a i i u e x D T [ v.v.v.v.v.m._ m 7 : . . . ",
". . . # 5 l Y v.m.m.m.m.m.o.W G b e u i p s h h h h V Z Z Z Z Z Z Z Z Z Z Z Z Z Z Z Z Z Z Z Z Z Z Z Z Z Z V V h h g s p i u e x D T [ v.v.v.v.v.m.E m 7 : . . . ",
". . . + 5 l Y v.m.m.m.m.m.o.^ G b e u a p d h V Z Z Z Z Z Z Z Z Z Z Z Z Z Z Z Z Z Z Z Z Z Z Z Z Z Z Z Z Z Z Z V h h h d p i e x D T [ v.v.v.v.v.v.E m 7 : . . . ",
". . . # 5 l Y v.m.m.m.m.m.o.^ G b u i a h h Z Z Z Z Z Z Z Z Z Z Z Z Z Z Z Z Z Z Z Z Z Z Z Z Z Z Z Z Z Z Z Z Z Z Z Z h h p i e x A T [ v.v.v.v.v.v.E m 7 : . . . ",
". . . # 5 l Y v.m.m.m.m.m.o.W G b q u a d h Z Z Z Z Z Z Z Z Z Z Z Z Z Z Z Z Z Z Z Z Z Z Z Z Z Z Z Z Z Z Z Z Z Z Z Z h h s i e x D W [ m.v.v.v.v.v.E m 7 : . . . ",
". . . # 5 l Y m.m.m.m.m.m.o.^ G b u i p d h Z Z Z Z Z Z Z Z Z Z Z Z Z Z Z Z Z Z Z Z Z Z Z Z Z Z Z Z Z Z Z Z Z Z Z Z Z h s i e x D T [ m.v.v.v.v.v.E m 7 : . . . ",
". . . # 5 l Y m.m.m.m.m.m.o.^ G V u p p p V Z Z Z Z Z Z Z Z Z Z Z Z Z Z Z Z Z Z Z Z Z Z Z Z Z Z Z Z Z Z Z Z Z Z Z Z h h s i u x D W [ m.m.m.m.m.v._ m 7 : . . . ",
". . . # 5 l Y m.m.m.m.m.m.o.W D d q u d p V Z Z Z Z Z Z Z Z Z Z Z Z Z Z Z Z Z Z Z Z Z Z Z Z Z Z Z Z Z Z Z Z Z Z Z Z V h d i e x D T [ m.m.m.m.m.v.E m 7 : . . . ",
". . . # 5 l Y m.m.m.m.m.m.o.W H d p p p V V Z Z Z Z Z Z Z Z Z Z Z Z Z Z Z Z Z Z Z Z Z Z Z Z Z Z Z Z Z Z Z Z Z Z Z Z h h s i e x D T [ m.m.m.m.m.m.E m 7 : . . . ",
". . . # 5 l Y m.m.m.m.m.m.o.^ G d 9 p p p V Z Z Z Z Z Z Z Z Z Z Z Z Z Z Z Z Z Z Z Z Z Z Z Z Z Z Z Z Z Z Z Z Z Z Z Z h h s i e x D T [ m.m.m.m.m.m.E m 7 : . . . ",
". . . # 5 l Y v.m.m.m.m.m.o.W H b e i p h h Z Z Z Z Z Z Z Z Z Z Z Z Z Z Z Z Z Z Z Z Z Z Z Z Z Z Z Z Z Z Z Z Z Z Z Z V h s i e x D T [ v.v.v.v.v.m.E m 7 : . . . ",
". . . # 5 l Y v.m.m.m.m.m.o.W G b e i s h h Z Z Z Z Z Z Z Z Z Z Z Z Z Z Z Z Z Z Z Z Z Z Z Z Z Z Z Z Z Z Z Z Z Z Z Z V h s i e x D W [ v.v.v.v.v.m.E m 7 : . . . ",
". . . # 5 l Y v.m.m.m.m.m.o.^ D b e i s h h Z Z Z Z Z Z Z Z Z Z Z Z Z Z Z Z Z Z Z Z Z Z Z Z Z Z Z Z Z Z Z Z Z Z Z Z h h s i u x D T [ v.v.v.v.v.v._ m 7 : . . . ",
". . . # 5 l Y v.m.m.m.m.m.o.^ G b e i p h h Z Z Z Z Z Z Z Z Z Z Z Z Z Z Z Z Z Z Z Z Z Z Z Z Z Z Z Z Z Z Z Z Z Z Z Z h d d i e x A T [ v.v.v.v.v.v.E m 7 : . . . ",
". . . + 5 l Y v.m.m.m.m.m.o.^ G b e i a s h h h Z Z Z Z Z Z Z Z Z Z Z Z Z Z Z Z Z Z Z Z Z Z Z Z Z Z Z Z Z Z Z d h V h d a i e x D T [ v.v.v.v.v.v.E m 7 : . . . ",
". . . # 5 l Y v.m.m.m.m.m.` ^ G b e e i p s h h h h Z Z Z Z Z Z Z Z Z Z Z Z Z Z Z Z Z Z Z Z Z Z Z Z Z Z Z Z Z Z h h d s a i e x D T [ v.v.v.v.v.v.E m 7 : . . . ",
". . . # 5 l Y v.m.m.m.m.m.o.^ G b e e i i a s g h h h Z Z Z Z Z Z Z Z Z Z Z Z Z Z Z Z Z Z Z Z Z Z Z Z Z Z Z d d h s a a i u e x D W [ v.v.v.v.v.v.E m 7 : . . . ",
". . . # 5 l Y v.m.m.m.m.m.o.^ G b e e u i i i s h h h Z Z Z Z Z Z Z Z Z Z Z Z Z Z Z Z Z Z Z Z Z Z Z Z Z Z Z d d s i i u e u e x D T [ v.v.v.v.v.v.E m 7 : . . . ",
". . . # 5 l Y m.m.m.m.m.v.O.^ G b e e e e e e i p h h Z Z h Z Z h h :.d d Z Z Z h h Z h Z Z Z Z Z Z Z Z Z d d d p u e e e e e x D R [ v.b.m.m.m.m.E N 7 : . . . ",
". . . + , j N E E E E E E Y M v y 4 4 4 4 4 4 9 q e u p d p d d p d p p p p p p d d d d p p p p p p p p p p u q 9 8 2 8 8 8 4 t z b G E E ^ E E E N j 5 : . . . ",
". . . + , 7 j m m m m m m v k w 4 - ; ; ; ; ; < ; 8 8 9 9 9 8 9 9 9 9 9 q q 9 9 q 9 9 9 9 9 9 9 q 8 8 q 8 8 8 ; < < = = - ; > 1 6 t l m m m m m m j 7 5 # . . . ",
"      + : , 5 7 7 7 7 7 7 5 3 > - % $ $ $ $ % % * * * = = = = = = = = = = = = = = = = = = = = = = = = = = = = * % $ $ $ $ $ $ & > , 5 7 7 7 7 7 7 7 , , #       ",
"        + # : : : : : : : # # # @ X X X o X X X o o o $ @ $ @ @ $ o @ $ @ $ @ $ @ % @ @ @ @ @ @ @ @ % @ @ @ $ o X X X X X X X @ + # # : : : : : : : # #         ",
"          . . . . . . . . . . . . . . . . . . . . . . . . . . . . . . . . . . . . . . . . . . . . X . . . . . . . . . . . . . . . . . . . . . . . . .           ",
"          . . . . . . . . . . . . . . . . . . . . . . . . . . . . . . . . . . . . . . . . . . . . . . . . . . . . . . . . . . . . . . . . . . . . . .           ",
"          . . . . . . . . . . . . . . . . . . . . . . . . . . . . . . . . . . . . . . . . . . . . . . . . . . . . . . . . . . . . . . . . . . . . . .           "
};
