/* XPM */
static char *_894e47725c34676c440599451ca5a5cV3azPv6lDmilU8jL[] = {
/* columns rows colors chars-per-pixel */
"80 80 40 1 ",
"  c black",
". c gray2",
"X c #0B0B0B",
"o c gray6",
"O c #111111",
"+ c #161616",
"@ c #181818",
"# c #1E1E1E",
"$ c #222222",
"% c #282828",
"& c #2D2D2D",
"* c gray20",
"= c #353535",
"- c gray22",
"; c gray24",
": c gray25",
"> c #444444",
", c #484848",
"< c gray30",
"1 c gray32",
"2 c gray33",
"3 c #5B5B5B",
"4 c gray37",
"5 c gray39",
"6 c #656565",
"7 c #686868",
"8 c #6F6F6F",
"9 c gray44",
"0 c gray46",
"q c gray48",
"w c #7C7C7C",
"e c #808080",
"r c #848484",
"t c #888888",
"y c gray55",
"u c #939393",
"i c #979797",
"p c #9B9B9B",
"a c #9F9F9F",
"s c gray64",
/* pixels */
"                                                                                ",
"                                                                                ",
"                                                                                ",
"   .XO+##################################################################@OoX   ",
"   X+$&;;;;;;;;;;;;;;;;;;;;;;;;;;;;;;;;;;;;;;;;;;;;;;;;;;;;;;;;;;;;;;;;-;*%@O   ",
"   O$*>333333333333333343333333333333333333333343333333333333333333333433,-%+   ",
"   +&>3qqqqqqqqqqqqqqqqqqqqqqqqqqqqqqqqqqqqqqqqqqqqqqqqqqqqqqqqqqqqqqqqqq5<=#   ",
"   #;3qssssssssssssssssssssssssssssssssssssssssssssssssssssssssssssssssssr6>%   ",
"   #;3qsapiuyyuyyyuyyyyyuyyyyuyuuuuyuuuuuuuyuuyuuuuuuuuuuuuuyuuyuuyuiipasr6,%   ",
"   #;3qspuyrqqqqqqqqqwqqqqqqwwwewewewwwwweeeewewwwwwwwwwwweweeweewewrtupsr6,%   ",
"   #;3qsiye066665666666666667777889888888888888988888888888888988888qetisr6,%   ",
"   #;3qsur06111111111111111122333334343434333344343343344333333433447qrusr6>%   ",
"   #;3qsyq51====-=====-====--;;:>>,>>>,>:>>>,>>>>>>>>>,>>>>>>>>>>,>>27qysr6>%   ",
"   #;3qsyq61===-==-----==----;::>>>>>,>>>>>,>>>,>,<<<<<11<<<<<1<,,,>27qtsr6,%   ",
"   #;3qsuq61===-=----;;;-;;-;:::>>>>>>>>,>,>,>,>,<113223322332311<,,36qysr6,%   ",
"   #;3qsyq61--====---;;;:;:;::>>>,>,>,>,>>>>>>>>,<2345545555455321<>27qtsr6,%   ",
"   #;3qsuq61====-=--;;::::>:>:>>>>>>>>>>>>>>>>>><13587878787778532<>36qysr6>%   ",
"   #;3qsyq61==-=-==;::>,>,>>,>>>>,>,>,>,,>,>,>,><3570q0q0q0qqq08631>27qtsr6,%   ",
"   #;3qsyq61==----;;::>>>>>>>,>,,>>>,>>>>>>,>>>,<257q00qqq0qq0q8532>37qysr6,%   ",
"   #;3qsyq61=----;;;:>>,>,>,>>>>>>>,>>>,,>>>,>>><357q0qq0qq00q08541>27qtsr6,%   ",
"   #;3qsyq61==--;::::>>>>>,>>>>>,>,>>>,>>,>>>,>,12570qq00qq0qq08631>27qtsr6,%   ",
"   #;3qsyq61--;;;::>>>>>>,>>,>,>>>>>>,>>>>,>>>>><3570q0qq0qqq0q8531:37qysr6,%   ",
"   #;3qsuq61=--::>>>>>,>>>>>>>>,>>,>>>>>>>>>>,>><348qq0qq0q00q08631>27qtsr6,%   ",
"   #;3qsyq61=-;;>>>,>,>>>,>>,,,,<<<<,<<<<<<<,,,><3570qq00qq0qq08541>27qysr6>%   ",
"   #;3qsyq61=-;;:,>>>,>,>,>>,,<1212121112121<,,><258qq0qqq0qq0q8531>27qtsr6,%   ",
"   #;3qsyw61=-;;:>,>>>>>>>,>,<123323333323322<<><34700qqq0q00q08631>27qysr6,%   ",
"   #;3qsyq61--;;:>>>>,>>>>>><<1355555554555321<>1257q0q000qqq0q8532>37qysr6>%   ",
"   #;3qsyq61==;;>>,>>>,>,>,>,13577787787787542<><357qq0qqq0q0q08541>27qtsr6,%   ",
"   #;3qsyw61==-::>>,>>>,>>>,<23487788878877542<,<347qq0q0qq0qq08631>27qtsr6,%   ",
"   #;3qsyq61=-;;>>>>,>>>,>>><135787777877885321><3580qq0q0qqq0q8531:37qysr6>%   ",
"   #;3qsuq61=-;::,>,>,>,>,>,<23487788777877542<><347q00qq0q00q08631>27qtsr6,%   ",
"   #;3qsyq61---;:>>>>>>>>>>>,23587877878778542<><258q0qq0qq0qq08541>27qysr6,%   ",
"   #;3qsyq61=-;;>>>>>>>>>>,><135787877878785421><258qq0qq0qq0qq8531>27qtsr6,%   ",
"   #;3qsuw72;;:>>,,,,,,,,,>><22587878778787542<><3570qq00q0qq008631>27qysr6>%   ",
"   #;3qsuw83>>>,<<,<<<,<,,>>,23477877887777532<><257q00qqq000q08532>37qysr6,%   ",
"   #;3qsue95,,<<<<1<111<<,,><234787887878785321><357q0qqq0qqq0q8541>27qtsr6,%   ",
"   #;3qsue061111212212211,,>,23578777787877542<>12570qq0q0qqq0q8631>27qtsr6,%   ",
"   #;3qsir082323333332321<<><235878878787885321><3570q0qqq000q08531:37qysr6,%   ",
"   #;4qsitq72323332333321<,><234778778788775421><348qq0q0q0qq0q8631>27qtsr6>%   ",
"   #-3qsirq83333232332321<<>,13578787787778542<,<3570qq0q0qq0q08541>27qysr6,%   ",
"   #;3qsirq83232333323221<,,<23487788778778532<><3570qq0q0qq0qq8531>27qtsr6,%   ",
"   #;3qsirq73333322333321<,><13578877887877542<><258qq0q0q0qq008631>27qysr6,%   ",
"   #;3qsirq72322333332321<<><234877887787785421><3570q0qqq000q08532>37qysr6>%   ",
"   #;3qsitq73333322333321<,>,23578777787887542<><2480qq0q0qqq0q8541>27qtsr6,%   ",
"   #;3qsirq82323333233221,,><13587877878788532<><357q0qqq0qqq0q8631>27qtsr6,%   ",
"   #;3qsitq73333323323321<<><225877887788775421>1248q00qqq000q08531:37qysr6>%   ",
"   #;3qsir083232233323321<,>,23478777787778532<><2570qq00q0qq0q8631>27qtsr6,%   ",
"   #;3qsirq73333232333321<<><23487788778787642<><348qq0qq0qq0q08541>27qysr6,%   ",
"   #;3qsirq73333332233311<,>,23577878787877542<>1257q0qq0qq0qq08531>27qtsr6,%   ",
"   #;3qsitq73232323323321<,><235887878777875321><358q00qq0q00q08631>27qysr6>%   ",
"   #;3qsitq83232333233321<<><234787778788785421><3470qq0q0qqq0q8532>37qysr6,%   ",
"   #;3qsurq73333233332311<<>,13587878787877542<,<258qq0q0qq0qq08541>27qtsr6,%   ",
"   #;3qsirq72323233332321,<><23477878788787532<><347qq0qqq0q0qq8631>27qtsr6,%   ",
"   #;3qsitq73323333233321<,,<13578787877877542<><258q0q000qqq008531:37qysr6,%   ",
"   #;3qsirq82333323323311<,><23478787778878532<><35700qqq0q00q08631>27qtsr6>%   ",
"   #;3qsirq73323332233321<,>,235778787877875421>1257qq0qqq0qq0q8541>27qysr6,%   ",
"   #;3qsirq73233332233311<<><135878787788785421><357q00q0qq0qq08531>27qtsr6,%   ",
"   #;3qsitq73332323323321<,><22578777887787542<><2580qq0q0q00q08631>27qysr6,%   ",
"   #;3qsitq83233333233321<<>,23488788778777532<><357qqqqq0qqq0q8531>37qysr6,%   ",
"   #;3qsurq73332233332311<,><234778778778785321><257q00q0qq0qq08631>27qtsr6>%   ",
"   #;3qsitq73323233332321<,>,235877888788785421><3570q00qq0q0qq8531>27qysr6>%   ",
"   #;3qsirq8233333323332<<<><23578777787777642<>1248qqqq00qqq008631>27qtsr6,%   ",
"   #;3qsirq73323323323321<,><23487788777787532<><257q00qq0q00q08531,36qysr6,%   ",
"   #;3qsir082323332233321<,,,135878778788785421><3480qq0qq0qq0q8631>27qtsr6,%   ",
"   #;3qsirq83232323333221<,><23587887878778532<>1347qqq00q00q0q8531>27qysr6,%   ",
"   #;3qsirq73332333223321<<><23578778787877542<><258q00qqqqqqq08531>27qysr6,%   ",
"   #;3qsirq73323323333321<,>,125777877877785421>1257qqqqq00q0qq8631>27qtsr6,%   ",
"   #;3qsirq82333333223321<,><13587877878887542<><35700q00qqqq008531>27qysr6>%   ",
"   #;3qsiye06676666666664442467800000000000976425680eeeeeeeeeeeq975260eusr6,%   ",
"   #;3qspyte0000900000099877790qeeeeeeeeewewq99789qetttttrtttttew0870wtusr6,%   ",
"   #;3qsaiyteerererreeeeewwqwwerttttttttyttrewwqwertuyuyyuuyuyyyteeqetuisr6,%   ",
"   #;3qsappiuuyuuyuyuuuyyyyyyuyiiiiiiiiiiiiuuuyyyuuiipipipiipppiiuytuuiasr6>%   ",
"   #;3qsssssssssssssssssssssssssssssssssssssssssssssssssssssssssssssssssse6,%   ",
"   @*<5errrrrrrrrrrrrrrrrrrrrrrrrrrrrrrrrrrrrrrrerrrrrrrrrrrrrrrerrrrrrrr81-$   ",
"   O%-<6666666666666666666666666666666666666666666666666666666666666666661:&@   ",
"   o@%=>,>,,,>,,,,,>,,,>,,,,,,,>,,,>>,,,,,,>,,,>>,,,>,,,>,,,>,,,,,>,,,>,>-&#O   ",
"   .O+#%%%%%%%%%%%%%%%%%%%%%%%%%%%%%%%%%%%%%%%%%%%%%%%%%%%%%%%%%%%%%%%%%%$@Oo   ",
"                                                                                ",
"                                                                                ",
"                                                                                "
};
