/* XPM */
static char *a092432662444ff3af6dd1a616bfebe60kjYyjXi8pFDBKkJ[] = {
/* columns rows colors chars-per-pixel */
"80 80 205 2 ",
"   c None",
".  c #040406",
"X  c #060608",
"o  c #0C0A0C",
"O  c #0B0709",
"+  c #13090B",
"@  c #1C0B0C",
"#  c #120606",
"$  c #0E0E10",
"%  c #100F12",
"&  c #121214",
"*  c #171619",
"=  c #1C1B1E",
"-  c #230D0F",
";  c #2C0E0E",
":  c #2A0F11",
">  c #260E10",
",  c #2E1112",
"<  c #251618",
"1  c #331213",
"2  c #3B1314",
"3  c #341D1F",
"4  c #2E1A0D",
"5  c #1E1E22",
"6  c #241F22",
"7  c #1F2124",
"8  c #232225",
"9  c #212528",
"0  c #2A2A2D",
"q  c #27282B",
"w  c #3A2528",
"e  c #2C2E32",
"r  c #272C30",
"t  c #343336",
"y  c #363539",
"u  c #3B393E",
"i  c #383539",
"p  c #313034",
"a  c #431617",
"s  c #4D191A",
"d  c #411C1E",
"f  c #541717",
"g  c #521A1B",
"h  c #5A1B1C",
"j  c #631E1F",
"k  c #6B1E1E",
"l  c #4B1F21",
"z  c #462629",
"x  c #5A2729",
"c  c #463438",
"v  c #553637",
"b  c #592F31",
"n  c #6D2122",
"m  c #692A2C",
"M  c #762121",
"N  c #7B2626",
"B  c #663336",
"V  c #7B3537",
"C  c #572E13",
"Z  c #754B36",
"A  c #3D3D42",
"S  c #363C41",
"D  c #413E43",
"F  c #5B3D41",
"G  c #763F43",
"H  c #3D4449",
"J  c #3C4045",
"K  c #444345",
"L  c #444449",
"P  c #48454B",
"I  c #4C494F",
"U  c #44494F",
"Y  c #584547",
"T  c #474F54",
"R  c #4D4C52",
"E  c #524F54",
"W  c #4F5358",
"Q  c #535156",
"!  c #55545A",
"~  c #5A565C",
"^  c #5C5B5E",
"/  c #52585F",
"(  c #695257",
")  c #75575C",
"_  c #73484B",
"`  c #555C62",
"'  c #5C5C63",
"]  c #605D64",
"[  c #5A636A",
"{  c #5F6366",
"}  c #646166",
"|  c #65666B",
" . c #6B666E",
".. c #66676C",
"X. c #636E75",
"o. c #6C6D73",
"O. c #716D75",
"+. c #6D757C",
"@. c #657078",
"#. c #727274",
"$. c #74737A",
"%. c #7A777D",
"&. c #766159",
"*. c #822727",
"=. c #8C292A",
"-. c #9E2E2E",
";. c #942C2C",
":. c #873739",
">. c #9A3637",
",. c #AC3232",
"<. c #B53D2F",
"1. c #804218",
"2. c #925232",
"3. c #B5593C",
"4. c #B34F31",
"5. c #BE603B",
"6. c #A8561E",
"7. c #C7542B",
"8. c #CF6A31",
"9. c #814448",
"0. c #9A494C",
"q. c #9D4E51",
"w. c #9A5357",
"e. c #98585D",
"r. c #8F5C4E",
"t. c #A34243",
"y. c #AC4940",
"u. c #AC5C4D",
"i. c #9A675D",
"p. c #B36B4C",
"a. c #A66C5C",
"s. c #A8745D",
"d. c #B4664F",
"f. c #955C61",
"g. c #936167",
"h. c #966569",
"j. c #98776F",
"k. c #8D6C73",
"l. c #916E71",
"z. c #8F7479",
"x. c #937274",
"c. c #836D66",
"v. c #B1746D",
"b. c #C06565",
"n. c #C17D76",
"m. c #9B857F",
"M. c #AC8076",
"N. c #757A82",
"B. c #7C7C84",
"V. c #7E7F88",
"C. c #847E87",
"Z. c #917F86",
"A. c #B37E81",
"S. c #75838B",
"D. c #7C838C",
"F. c #7A8186",
"G. c #7F8D96",
"H. c #7D8790",
"J. c #85868B",
"K. c #888690",
"L. c #8B8B95",
"P. c #8C8F99",
"I. c #828992",
"U. c #8E939D",
"Y. c #85929B",
"T. c #939393",
"R. c #98979C",
"E. c #94898F",
"W. c #B09090",
"Q. c #9199A3",
"!. c #939AA3",
"~. c #8D9AA2",
"^. c #A29EA5",
"/. c #95A2AC",
"(. c #9EA3AB",
"). c #98A7B1",
"_. c #9BADB7",
"`. c #9BABB5",
"'. c #A1A1A2",
"]. c #A9A9AB",
"[. c #A5B3BB",
"{. c #B6B6B8",
"}. c #B5ACB0",
"|. c #D08B8B",
" X c #C89896",
".X c #C69EA0",
"XX c #DFB2B2",
"oX c #DCB9BA",
"OX c #C5AEAF",
"+X c #ADBCC4",
"@X c #B4BEC4",
"#X c #D9BEC0",
"$X c #B8C5CC",
"%X c #C1C1C2",
"&X c #C8CACB",
"*X c #C0CBD2",
"=X c #D0D0D0",
"-X c #D3DBDF",
";X c #D9DADB",
":X c #D3C9CC",
">X c #EED9D9",
",X c #E6EAED",
"<X c #E8E6E7",
"1X c white",
"2X c #F5F5F5",
/* pixels */
"                                                  X X X X X X X X X X X X X X X                                                                                 ",
"                                                  X X X X X X X X X X X X X X X                                                                                 ",
"                                                  . X X X X X X X X X X X X X .                                                                                 ",
"                                                  X X X O + @ @ > > > > > - - - @                                                                               ",
"                                                  X X X + @ : 1 d a a a a a 2 2 1 -                                                                             ",
"                                                  X X X + > 2 s j j j j j j h s 2 > X                                                                           ",
"                                                  X X X @ 1 s j *.*.*.*.*.*.n h a , X X                                                                         ",
"                                                  X X X > a j *.,.,.,.,.,.,.=.n s , X X X                                                                       ",
"                                                    X X > 2 h M =.;.>.>.>.t.:.m l , X X X X                                                                     ",
"                                                      X - 1 s h n N V :.0.q.9.B z , X X X X X                                                                   ",
"                                                        @ 1 2 a f x B _ 9.f.9.F z 6 X X X X X X X X X X X X X X X X                                             ",
"                                                          - : : ; z b Y ) z.) Y c 8 X X X X X X X X X X X X X X X X X                                           ",
"                                                            X . X = i I ] Z. .E A 8 X X X X X X X X X X X o X o X o X X                                         ",
"                                                            = = = p D !  .C.O.' R A 9 9 9 9 9 7 9 9 9 9 r 7 7 7 7 7 7 7 5                                       ",
"                                                          6 0 e t K E ] O.C.$. .' W H H H H H H H H H H H H H H H H S y e 7                                     ",
"                                                      X = q y D I ! ]  .$.C.B.$.o.X.' [ [ [ [ [ [ [ [ [ [ [ [ [ [ [ / T S q X                                   ",
"                                                    X X = e D E ] | O.$.%.C.C.V.D.D.S.S.S.S.S.S.S.S.S.S.S.S.S.S.S.S.@./ H r X X                                 ",
"                                                  . X X = y I ] C.C.C.C.C.C.K.U.U./._._._._._._._._._._._._._._._._.G.X.T e X X X                               ",
"                                                  = = 5 p P ~ o.K.K.K.K.K.K.P.U.!.)._._._._._._._._._._._._._._._._.G.X.T e X X X                               ",
"                                                6 q e y P ! ..N.P.P.P.P.P.P.U.Q./.)._._._._._._._._._._._._._._._._.G.X.T e X X X                               ",
"                                            X * q y D R ' ..$.I.Q.Q.Q.Q.U.~.!././.)._._._._._._._._._._._._._._._._.G.X.T e o X X                               ",
"                                          X X = p A E ]  .N.D.Y.!.)./.!./././.).).`._._._._._._._._._._._._._._._._.G.X.T r X X X                               ",
"                                        . X X 5 t I ] C.K.P.~./._._._._._._._._._._._._._._._._._._._._._._._._._._.G.X.T r X X X                               ",
"                                        X X X 5 u R  .K.P.U.!./._._.[.+X+X+X+X+X+X+X+X+X+X+X+X+X+X+X+X+X+X+X$X+X+X$X~.+./ t X X X                               ",
"                                        X X X 5 u ! o.P.U.!././._.[.+X+X$X$X*X*X$X*X*X*X*X*X*X*X*X*X*X$X$X*X*X$X$X$X(.F.^ y X . X                               ",
"                                        . X X 7 S / +.~.~./.).).).+X$X$X*X-X-X-X-X-X-X-X-X-X-X-X-X-X-X-X-X-X-X-X-X-X[.J.{ u X X X                               ",
"                                        X . X 9 H ` N.!./.).).`._.+X@X*X-X,X,X,X,X,X,X,X,X,X,X,X,X,X,X,X2X,X<X<X,X,X$XT...J X X X                               ",
"                                        X X X 7 H [ S._._._._._._.+X$X-X,X1X1X1X1X1X1X1X1X1X1X1X1X1X1X1X1X1X1X1X1X1X=X'.#.K X . X                               ",
"                                        X X X 9 H [ S._._._._._._.+X*X-X,X1X2X,X<X;X=X=X=X=X=X=X=X=X=X=X=X=X=X=X=X=X].m.{ i X X X                               ",
"                                        X X X 9 H [ S._._._._._._.$X*X-X,X1X,X>X&X{.'.'.'.'.'.'.'.'.'.'.'.'.'.'.'.'.F.{ I 0 X X X                               ",
"                                        X . X 9 H [ S._._._._._._.+X*X-X,X1X<X&X}.T.#.#.#.#.#.#.#.#.#.#.#.#.#.#.#.#.{ I t 8 X X X                               ",
"                                        . X X 9 H [ S._._._._._._.+X$X-X,X1X;X{.R.#.K K K K K K K K K K K K K K K K i 0 8 & X X X                               ",
"                                        X X X 9 H [ S._._._._._._.+X*X-X,X1X=X'.#.K X X X X . . . X X X X X X X X X X X X X X X X                               ",
"                                        X X X 7 H ` N././.).)._._.+X*X-X,X1X;X{.T...t t t t t t r 9 = & X $ = 7 r i 0 9 = & X X X                               ",
"                                        X X X 6 S ` N.Q.!.)./.`._.+X$X-X,X1X;X&X].J.} | { { { &.E K e = X * 0 i T { W K e 5 X X X                               ",
"                                        X X X 5 S ` @.U.Q.!./.)._.+X*X-X,X1X<X;X%X].T.U.T.T.T.T.#.^ K 0 $ 7 u W #.m.#.{ K r X X X                               ",
"                                        . X X 5 y E  .K.P.U.!./.`.+X*X-X,X1X2X<X-X=X@XOX@X#X@X#X'.%./ t X r T X.T.%X'.%.! t X X X                               ",
"                                        X X X 5 t I ] C.L.P.Q./.`.+X*X-X,X1X1X1X1X1X1X1X1X1X1X2X=X'.#.H X t [ m.%X2X=X'.#.K X X X                               ",
"                                        . X . 5 0 D W  .N.B.I.U./.[.@X&X=X<X<X>X>X>X>X>X>X>X>X>XOXm.m.Z 4 v &.m.OX>X}.m.&.u X X X                               ",
"                                        . X . * 6 p D ! ] o.N.I.Q.(.[.@X%X=X:X:X#XXXXXXXXXXXXXXX XM.r.Z C Z r.M.M.XXW.m.( i X X X                               ",
"                                        X X X % * 8 p A R ' o.N.U.!.^.].}.}.OXOX.X|.|.|.|.|.|.|.n.d.d.2.Z 2.u.a.n.|.v.f.F w X . X                               ",
"                                        X X . $ & * 5 8 u P ' $.L.P.P.R.R.^.R.A.A.A.b.b.b.b.b.b.b.d.3.6.6.6.4.u.p.b.q.G b 3 X . X                               ",
"                                        . X X X X X X X = y R [ C.C.C.C.C.C.Z.f.w.t.,.,.,.,.,.,.4.7.7.8.8.8.7.7.4.,.=.n s , X X X                               ",
"                                          . X X X X X O = w F ( k.z.k.k.C.k.g.f.w.q.t.t.t.t.t.t.t.4.3.8.8.8.8.3.4.t.:.m z < X . X                               ",
"                                            X X X X X X = w F _ f.g.f.f.h.h.f.f.e.w.q.q.q.q.q.q.q.u.d.p.p.p.p.u.u.q.9.B z < X X X                               ",
"                                              X . . X X < w b G w.f.w.f.w.w.w.e.e.f.f.e.f.f.f.e.f.a.a.a.s.s.s.a.h.f._ F z 3 X X X                               ",
"                                                O X . X > 3 x V t.t.0.t.t.0.q.w.e.g.k.k.k.k.k.k.k.l.x.j.j.j.j.l.l.l.) Y i 3 X X X                               ",
"                                                  . X X : a j N ,.,.,.,.,.,.t.q.f.k.C.C.C.C.C.C.J.C.C.C.C.C.C.C.C.C. .Q u 8 X X X                               ",
"                                                  @ + X > l x V t.t.t.t.t.t.q.f.g.Z.K.K.K.K.K.K.K.K.K.K.K.K.K.K.K.K.o.! D 9 X . X                               ",
"                                                a : + X * l b V 0.q.q.q.q.q.f.h.z.Z.P.P.P.P.P.P.L.P.P.P.P.P.P.P.P.P.N.' L q X . X                               ",
"                                            ,.N g 1 - X * w v _ f.f.f.f.f.f.f.z.Z.E.!.Q.~.Q.U.~.Q.Q.Q.~.~.Q.U.~.Q.~.B.[ L r X X X                               ",
"                                          ,.,.*.j a > X < p F ) k.h.k.k.k.h.Z.Z.E.U./././.!././././.!./././././.!./.H.[ U e X . X                               ",
"                                        ,.,.,.=.n g , X 5 y I ] C.C.C.C.C.C.Z.P.Q.!._._._._._._._._._._._._._._._._.G.@.T e . . X                               ",
"                                        ,.,.,.=.n s , X 5 y I | C.C.C.C.C.C.C.I.I.I.G.Y.G.G.G.G.G.I.G.G.G.Y.~.~.~./.H...T r X X X                               ",
"                                      ,.,.,.,.=.n s 1 X = y P ] C.C.C.C.C.C.B.N.N.@.X.X.@.X.@.@.@.X.X.@.X.+.S.H.Y.!.N.[ P r X X X                               ",
"                                  ,.,.,.,.,.,.=.n s , X = t R ] C.C.C.C.C.C.N.o.] ` T T T T T T T T T T T ` [ +.D.U.N.' L r X . X                               ",
"                                ,.,.,.,.,.,.,.=.n s , X 6 y E ] C.C.C.C.C.C.O.] W D e e e e e e e e e e e A W } N.K.$.` D q X . X                               ",
"                              ,.,.,.,.,.,.,.,.=.n g , X = y R ] C.C.C.C.C.C. .Q A 6 X X X X X X X X X . X 5 t I ] C. .Q A 6 X X X                               ",
"                              ,.,.,.,.,.,.,.,.=.n s , X 5 p R ] C.C.$.B.O. .( F c w > @ @ + o X $ $ % * 5 r u P !  .' P t 6 . . X                               ",
"                              ,.,.,.,.,.,.,.,.=.n s , . 6 t R ] C.B.O.] ] Q E D c z a 2 , @ + O $ * 6 q t u D P R Q D A 0 5 . X X                               ",
"                              ,.,.,.,.,.,.,.,.=.n g : X 5 p D  .C.%.] ' R D c c x x j s 2 1 @ X & 5 e A R P P D D u y r 6 * . .                                 ",
"                              ,.,.,.,.,.,.,.,.=.n s 1 X 5 t E ] C.O.] R D 6 w l x m *.k g 2 > X * q u P ] ~ I D y 8 6 = * % .                                   ",
"                              ,.,.,.,.,.,.,.,.=.n s 1 . 5 t R ] C. .! A 6 X > a j *.,.=.n g 1 . 5 t I ] C. .E A 8 O . . . .                                     ",
"                              ;.-.-.-.-.-.-.-.N j a : . < 0 D E  .~ D S 6 X > 2 h N -.N j a : X * 0 D Q  .~ P y 6 . . . .                                       ",
"                                *.=.=.=.=.=.=.M f 1 @ X & 8 p D Q P u 0 6 . - 1 f k =.M f 1 - X * 8 t D E P u e = X X . .                                       ",
"                                k M M M M M M h a : @ X & = 8 e u t e 8 * . # ; a h M f 2 : @ X $ = 8 e A t e 6 & . . .                                         ",
"                                  f f f f f f 2 ; @ + X o & * = 8 8 = & $ . # - ; 2 f 2 ; @ # . o % * 5 8 6 = * $ .                                             ",
"                                                . . . . X X X O X . . . .               . . . . X X X X O . . . .                                               ",
"                                                . . . . X X . X . . . .                 . . . . . . . . . . . .                                                 ",
"                                                . . . . . . . . . . . .                 . . . . . . . . . . . .                                                 ",
"                                                  . . . . . . . . . .                     . . . . . . . . . .                                                   ",
"                                                      . . . . . .                             . . . . . .                                                       ",
"                                                                                                                                                                ",
"                                                                                                                                                                ",
"                                                                                                                                                                ",
"                                                                                                                                                                ",
"                                                                                                                                                                ",
"                                                                                                                                                                ",
"                                                                                                                                                                ",
"                                                                                                                                                                "
};
