/* XPM */
static char *_ec7284e68e34fedfb0f46bafdb4c91exwUaKNs7Ee6svU0n[] = {
/* columns rows colors chars-per-pixel */
"80 80 128 2 ",
"   c #353E50",
".  c #374153",
"X  c #384255",
"o  c #394356",
"O  c #394357",
"+  c #3A4457",
"@  c #3B4558",
"#  c #3B4559",
"$  c #3B455A",
"%  c #3C475B",
"&  c #3D475B",
"*  c #3D475C",
"=  c #3E485E",
"-  c #3F4A5E",
";  c #3F4A5F",
":  c #404B5F",
">  c #404A60",
",  c #404B60",
"<  c #404B61",
"1  c #414C62",
"2  c #414D63",
"3  c #424C62",
"4  c #424D62",
"5  c #424E63",
"6  c #434E63",
"7  c #424D64",
"8  c #434F65",
"9  c #434F66",
"0  c #444F66",
"q  c #445066",
"w  c #445067",
"e  c #455068",
"r  c #465268",
"t  c #465269",
"y  c #475369",
"u  c #46526A",
"i  c #46536A",
"p  c #47536B",
"a  c #47546C",
"s  c #48536A",
"d  c #48546C",
"f  c #49546C",
"g  c #49556C",
"h  c #49566D",
"j  c #4A566D",
"k  c #49566F",
"l  c #4B586F",
"z  c #4A5771",
"x  c #4B5972",
"c  c #4D5971",
"v  c #4C5873",
"b  c #4C5973",
"n  c #4D5A72",
"m  c #4E5A72",
"M  c #4E5B73",
"N  c #4D5B75",
"B  c #4E5B75",
"V  c #4E5B76",
"C  c #4F5C77",
"Z  c #4F5C78",
"A  c #4F5D78",
"S  c #505C75",
"D  c #525F78",
"F  c #525F79",
"G  c #515E7A",
"H  c #515F7A",
"J  c #515F7B",
"K  c #53607A",
"L  c #53617A",
"P  c #54617A",
"I  c #54617B",
"U  c #55627C",
"Y  c #55637D",
"T  c #54627E",
"R  c #56647E",
"E  c #57647F",
"W  c #556380",
"Q  c #556481",
"!  c #576581",
"~  c #566482",
"^  c #576582",
"/  c #566583",
"(  c #576583",
")  c #576684",
"_  c #596681",
"`  c #596783",
"'  c #596785",
"]  c #586786",
"[  c #5B6984",
"{  c #5B6A85",
"}  c #5B6986",
"|  c #5A6988",
" . c #5A6A89",
".. c #5B6A89",
"X. c #5C6B88",
"o. c #5C6B8A",
"O. c #5E6D89",
"+. c #5E6C8A",
"@. c #5D6D8C",
"#. c #5E6D8C",
"$. c #5F6E8D",
"%. c #5F6F8E",
"&. c #606E8B",
"*. c #606F8C",
"=. c #616F8D",
"-. c #606F8F",
";. c #61718F",
":. c #617090",
">. c #637290",
",. c #637292",
"<. c #647390",
"1. c #647391",
"2. c #667595",
"3. c #667694",
"4. c #667696",
"5. c #677696",
"6. c #677796",
"7. c #687797",
"8. c #687897",
"9. c #6A7999",
"0. c #6A7A9A",
"q. c #6B7A9A",
"w. c #6C7B9B",
"e. c #6C7C9C",
"r. c #6D7C9C",
"t. c #6E7D9D",
"y. c #6E7E9E",
"u. c #6F7F9F",
/* pixels */
"8 8 8 < & # o                                                                 + - - 7 < # # X                                                                   ",
"8 8 8 < & & o                                                               . + # : q < - # X                                                                   ",
"8 8 8 < & + o                                                               . + # : q : - @ o                                                                   ",
"8 8 8 5 5 5 : : - - - - - - - - : : : : : : # 5 : : # : : : : : : # : : : : : : : 5 6 q 5 - > > - - - - : : : : : & : : & : : & : : : : : # < : # : : : : : : : ",
"8 8 8 q t t d d j l s s t d d d j j j j j d d d s d j j j j j j j j s j j j j y q y q q q y y j p x d l d l s j j j j s j j j j j j j f j d j d s j j j j j j j ",
"8 8 8 t d n S I I I I I R Y Y R I S Y I E Y Y F E I I I I I I I U U I F I I S S l y q q j S S I K Y I K I I I P R I Y P I Y R I E F I E Y Y Y F I Y E F I F U F ",
"8 8 8 d n I _ ;.;.=.=.=.=.=.;.=.=.&.=.=.=.=.-.=.=.=.=.=.=.=.=.=.;.=.=.=.=.=.[ I S j q j S P [ ;.=.%.=.,.;.;.=.=.=.&.=.&.&.=.;.=.&.&.&.&.=.&.-.=.=.=.=.=.=.=.=.=.",
"8 8 8 l I { ;.u.u.t.u.u.t.u.u.u.u.u.u.u.u.u.u.u.u.u.u.u.u.u.r.u.u.t.u.u.r.u.3.=.R j q l P [ ;.u.u.u.9.u.u.u.t.u.u.t.u.u.t.u.u.t.u.u.u.u.u.u.u.u.u.u.u.u.u.u.t.u.",
"6 q 6 l P [ ;.u.t.t.t.q.q.q.q.q.q.q.q.w.q.q.w.w.q.q.w.w.w.w.w.w.9.t.t.t.t.u.3.O.I S 6 l P ` ;.u.u.u.w.w.w.9.w.w.9.w.9.t.3.q.8.q.w.7.w.7.w.q.w.w.r.q.r.r.t.u.u.u.",
"q 6 q l P =.3.u.t.t.q.8.3.7.7.3.7.7.7.,.7.7.7.,.5.7.7.,.2.7.,.,.;.q.9.q.t.u.3.&.Y n q l P O.;.u.w.w.w.7.2.7.2.,.3.3.7.3.7.7.7.9.7.,.7.7.2.7.7.,.7.7.7.r.t.u.u.u.",
"8 8 q l P [ 1.u.t.t.8.3.,.,.;.1.-.,.,.-.,.,.,.,.,.,.,.,.,.,.1.,.;.3.6.8.q.u.3.&.R M 6 l I [ ;.u.w.w.7.,.,.,.,.,.3.;.;.;.1.-.1.1.,.,.,.-.,.,.,.,.;.<.7.r.r.u.u.u.",
"8 8 6 j I [ ;.u.8.8.3.;.%.%.=.=.-.=.=.%.-.@.-.@.@.-.@.@.1.=.@.-.;.;.3.8.t.q.3.;.R n q l I O.;.u.w.7.,.,.-.-.@.-.;.&.;.=.@.=.=.&.-.=.-.=.=.,.@.@.=.;.;.7.r.u.u.u.",
"8 8 8 l Y [ =.u.7.7.1.-.{ ......| | | | | | | | | | | | o...| | [ =.=.2.q.u.;.;.R M q s Y O.3.u.w.2.1.%.| | | | | | | | | | | | | | | o...o...o.[ =.1.1.q.u.u.u.",
"< < 5 t n Y [ ,.=.o.] ( J J W J W F W J W W W W W W J J J J J W J Y ] o.=.,.[ R S s : q n K [ ;.=.%.] W W J J W J W F Y W W W W W W J J J J J J J ~ ] o.;.;.;.<.",
": & # 5 s j S _ Y F J V v v v v v v n V V V J J V S V v v v n S v V F J Y _ K S s q : 5 s l K R Y Y J S v v v v v v V V G V J G S V v v v v v v v S J F U E E E ",
"@ # + : 7 s d S n j d t e e e e e e e s v v v v z d d e e e t 7 e d d d d S d s q : @ : 5 q d M n d d d e e e e e e t e z z V v z d d e e t e e e s d d j S S l ",
"o X o o # - : 5 : : : : : & & : & & < 7 q s s t q q - - # - : # @ : : : : : : : # + o o @ : : 6 < < < < # : : # : : : 5 7 s s t q q > & - - : # - < < < : 6 6 6 ",
"                                      # # 5 7 < & & o         .                                                     o @ * : 7 < & + X                           ",
"- 5 - - : 5 : - 5 : : 5 : 5 : 5 5 5 : < < 8 q 7 q ; 5 : - 8 - < : : : : : : : : : : : : : : 5 : : : : : : : : : : < < < < q 7 q q 5 : : > 5 - 5 : 5 : : : : : : ",
"t d t n s d d s d s s d s d s d s d s s t q q q q s s s d d t d f f j j j j j j l s j j d s d d j j d d j j s j s s s s t q 7 q q s s s t a p d s d d s j j j j ",
"I I I I Y I I I F I I I Y Y Y T I I I M s d q t s n S Y I R Y ^ E S I I I I I I I I I I F Y I F I I I I I I I I I I S M s d 7 t s n S I R I Y Y I Y F I I I F I ",
";.=.=.=.=.=.=.;.=.=.=.=.=.o.=.,.;.;.` I S d q d n L _ =.;.=.+.+.=.=.=.;.=.=.=.=.;.=.=.=.=.-.=.=.=.=.=.=.=.=.=.=.;.;.` I S x q s S K _ ;.=.+.=.=.=.=.=.=.=.;.=.=.",
"t.u.u.u.u.u.u.u.u.u.u.u.u.u.y.y.t.u.3.+.R n q l I [ ;.u.0.u.u.u.u.u.u.u.u.u.u.u.u.u.u.u.u.u.u.y.u.u.u.u.u.u.u.q.u.u.3.+.R C q l K [ ;.u.u.u.u.u.u.u.u.u.u.u.u.u.",
"q.9.q.q.q.q.q.9.w.q.9.q.q.9.q.y.t.u.2.+.R n q l I O.;.u.u.t.e.e.q.q.q.q.q.q.q.q.q.q.q.q.w.9.w.9.q.q.q.q.q.q.r.u.t.u.3.+.R n 8 l I O.;.u.u.q.w.w.q.q.q.q.q.q.q.q.",
";.9.8.7.2.7.2.2.7.2.7.2.2.7.9.q.t.u.3.O.R M q l I [ ;.u.u.9.9.8.7.7.7.,.7.7.7.5.2.2.2.8.2.7.,.7.2.2.2.,.2.9.q.9.t.u.3.O.Y S 6 l I [ ,.u.u.9.q.q.5.5.5.,.5.5.5.,.",
"3.;.;.;.,.1.1.,.,.,.,.,.,.,.2.q.t.t.3.O.R M q l K ` 6.u.e.9.8.2.1.1.1.1.1.,.,.,.,.,.,.,.,.,.,.,.,.,.,.,.,.,.9.9.t.u.3.O.Y n q l Y [ 3.u.q.9.7.1.,.,.,.,.,.,.,.,.",
"%.=.=.=.-.%.=.@.=.=.-.@.-.,.5.5.9.u.3.O.R n q l I [ ;.u.e.8.3.1.=.-.-.=.@.-.-.@.+.%. .%.-.%.%.%.-.%.%.%.-.,.,.2.q.u.3.O.R M q l J [ 1.u.q.q.3.;.-.-.@.-.&.,.,.-.",
"..o.[ [ ] ..] | | | | | ..@.-.,.8.u.3.O.R n q z P &.;.u.0.2.1.%.] [ ] ] | | | | ............] ..........{ %.;.,.8.u.3.O.R l q l Y [ 1.w.q.2.;.;.| ( | | | } | | ",
"| | | | | | | | | | | | | @.-.,.2.t.,.{ R n 8 p S Y O.3.;.;.%. .| | | | | | | | ..] ......] ] ......] ..] %.,.,.3.q.;.[ I n q s F _ =.q.5.=.,.o.| | | | | | | | ",
"| | | | | | | | | | | | | ..@.1.3.3.%._ K l t t M I R +.+.O. . .| | | | | | | | ..] ..] ........] ..] ......@.%.1.3.;.] I n q s S ~ &.7.,.,.-.-.| | | | | | | | ",
"| | | | | | | | | | | | | ..@.-.%.;.+.^ F n 8 t s M I R R _ _ { | | | | | | | | ....] ..] ....] ..] ....| ..@.%.1.1.o.^ C x q s S Y | =.,.-.&.| | | | | | | o.| ",
"| | | | | | | | | | | | | | o.| +.%._ T V a 8 q y s l M S K T ^ | | | | | | | | ] ......] ....] ......] ......@...%.{ R M x q d v J } o.-.@.-.| | | | | | | | o.",
"| | | | | o.| ..| | o.| | o.o.o.....W F C d 8 8 q 7 7 7 d v F W | | | o.| | o.| ..{ ..| | | ....] ..] ..o.o.| | | | W F v d 7 d v S W | | | | | | | o.| o.| | | ",
"W W W W W W J J G W G G J J F J A T V n a 7 : - < 7 < < 7 e z S J J W J G J W J W T W W W T ^ A A T A W J F F W W J J v d e = e d v V J W J W J J J W J J G J J ",
"J J F F V V S z v v v v v v v v N v x t q 8 : - : @ * * < 7 u s v v v v v v v S V F T A N V V v v v N v v v v S v v d t e 7 = < < e s v v v v v v v v v v v v v ",
"V V V z z d s s e e e e p t e e e e 7 < < # # # $ @ * O * > < 6 u e e e e e s d z x x x z p t e e e e e e s 7 7 e e 7 7 < * @ * : < 7 s e e e e e e e e u 7 u 7 ",
"t p p p 7 7 3 * > > * > # : : # * = * * o + o . O o o   o o + # : @ : : : * > 7 q y y y q q : & = = - * * < # 5 # - - # O O o o o @ # < 5 # : : * = : : @ > : : ",
"8 8 e < @ : o                                                                   + ; q < & & X .                                                                 ",
"8 8 8 8 < < < < > > < * : : : : > 8 > - 5 - : : - : < < : : : : > : < : < < 7 7 q : q q q & : : > 7 > 5 : < : < : : : : : < = < : : : : : # < : < > < < : > < < ",
"8 8 8 8 e s s f d d d d j j j j p d p p s z s s z s v d j j j j d s j f d d f d q q q q q y s s p p p d d d d d d s s v s d d d j j f f f j j d d d d d d f f s ",
"8 8 t t d n S R Y Y Y Y F J F I Y T I I I I I I F Y Y F F Y F I J E I F K I S S l s q q j l P I I I Y F Y I Y J R Y S Y K I I I F Y Y F Y F S Y Y F Y E Y Y J J ",
"8 8 7 d V K E =.=.=.%.&.=.=.=.=.=.=.=.;.=.=.=.=.=.-.=.%.=.=.=.=.=.=.=.=.=.;.` I S s q l M P R ;.=.=.=.=.=.%.=.-.=.=.=.=.=.=.=.=.=.-.=.%.=.=.=.=.&.=.=.=.@.=.-.,.",
"8 8 8 d I [ ;.u.u.u.u.y.u.u.u.u.u.u.u.u.u.u.q.u.y.u.u.y.u.u.u.u.u.u.u.u.u.u.3.+.R M q l P [ ;.u.u.u.u.u.u.u.y.y.y.u.u.u.u.u.u.u.y.u.y.y.u.u.u.u.u.u.u.u.u.u.u.u.",
"8 8 8 z I +.;.u.y.y.w.w.q.q.q.q.9.q.q.q.q.q.q.q.w.q.w.q.q.q.q.q.w.w.w.q.u.u.3.+.R l q l P &.;.u.u.u.q.q.q.q.q.9.u.2.q.u.q.q.9.9.q.q.w.9.q.w.9.w.q.q.w.w.w.u.u.u.",
"q q q l I O.;.u.w.w.q.7.7.2.7.2.7.7.,.7.;.9.8.8.,.7.7.7.7.7.,.7.7.7.9.9.y.y.2.+.R M q l L ` ;.u.q.q.q.9.2.7.2.7.2.7.2.2.1.8.7.7.2.7.2.7.2.7.7.,.7.7.q.q.y.y.u.u.",
": q q l K ` ;.u.w.q.7.2.,.,.,.1.,.,.,.1.3.;.;.;.,.,.,.,.,.,.,.,.1.1.7.7.w.u.2.+.R M q l I [ 3.u.q.q.7.3.,.,.,.,.,.,.1.,.3.;.;.1.,.,.,.,.,.,.1.1.1.1.7.7.q.u.u.u.",
"q q q j Y [ ;.u.w.7.,.1.-.@.@.@.=.-.=.%.=.o.;.=.-.@.@.-.-.@.@.%.=.1.,.7.w.y.2...R M q l L O.;.u.q.7.3.1.=.=.@.-.-.@.@.=.%.=.=.=.@.-.=.=.-.@.=.@.-.1.1.q.q.y.y.y.",
"q q q l P ` 3.u.w.7.,.-.| | | | | ..] o.] o.o.[ | | | | | | | | } &.,.,.q.y.2.;.R M q l L ` ;.u.q.7.1.=.| | | | | | { ..] ..] ..| | | | | | | } ] o.,.7.q.u.u.y.",
"q : q j F _ ,.u.2.,.,...../ { / ^ W W / / / | | | | | | | | | | ....%.,.2.9.,.{ K n 7 n F ] =.9.7.,.=.=.| | | | | | | | | | | | | | | | | | | | | @.=.-.2.q.q.q.",
"q q q j V W ..2.1.;.%.%...^ / W W A W W ] / | | | | | | | | | | ....%.-.1.7.+.] K V q d V ^ +.7.1.,.-.%.| | | | | | | | | | | | | | | | | | | | | @.=.,.,.7.7.2.",
"5 q q y V Y ..,.1.%.+.+...] W J Z Z Z A W / ..| | | | | | | | | ....%.%.,.,...^ C n q d S Y ] 1.,.-.@...| | | | | | | | | | | | | | | | | | | | | | @.@.@.,.,.-.",
"q q q y V J / -.%.o... .../ W A N p N N A / ....| | | | | | | | | ......+.%.| W S y 7 s V F ] %.@.@.....| | | | | | | | | | | | | | | | | | | | | o.| o.@.=.=.-.",
"q 5 q y x A W / ........| W J V p e p N Z W { ..| | ..| | | ....|  .........W A C a q p v V W ..| | | | | | o.| | o.| o.| | | | ..| | o.....| o.| | | | | | | | ",
": ; < q a k N W A W A J J V V p e 8 e a N Z Y ^ W W ^ A W A A W J J W J ^ A N v y t > 8 s v V F J J W J W J J J J J J J W W W W W W J J J J F F J W F W G W G W ",
"& % % 8 8 w a N N v v v z z t 8 8 O 2 8 p v F A x V N v N v v v v v x N v v p p 8 8 > > 7 s s n v v v v v v v v v v V V V G F G V V V v v v n v v v v v v v v v ",
"@ @ % % > > 8 8 e e e e e 8 > > % @ - 8 e k V x z p t t 8 e e e e e e 8 e e 8 > > % @ - # 5 q q e e e e e e e e e e e d z z v v z d d e e e t t e e e e e e e e ",
"o . o o @ @ & & > % : # * * * # . . & : 5 6 s t 7 7 5 # # : : # * = - * * : * @ @ . o o + # # & & & : & & : & & < * 3 7 7 s s s 7 q 5 # : * : # * : : # : - # : ",
"                                  . . + # : 8 5 : # o                                         .       .               o : : 7 < - + .                           ",
": : : : : : : : > 7 > < : 5 < : : : : : 5 7 q 5 6 < : : : : : : > 7 > 5 : 5 < : : : : : : : : : : : : : : : : : < < < < 5 7 7 7 6 6 : : < < < 5 < : < < : # 5 : ",
"d s j l s s j d d d d d s j d s l s s y q q q 7 7 s j d s j j j d p p d s d d s j j j s s j d j d s l d s s l s d d d s t t 7 q q s s s d d s d d s j j j d l d ",
"I I I I F I I I I I I I Y F I I I I L S l s q q d n S I F I I I I I I F Y F I Y I I I I I I I I R I I I K I I L I I I S s d q t s S S I I S Y I Y I Y F R Y F I ",
";.=.=.=.=.=.=.=.=.=.=.=.=.=.=.=.;.;.` I S s q s F I E =.=.=.=.=.=.=.=.=.=.=.=.=.=.=.=.=.=.=.=.=.;.;.=.=.=.;.;.=.;.;.` I S d q d S I _ =.;.=.=.=.=.=.=.=.+.%.%.+.",
"u.u.u.u.u.u.u.u.u.u.u.u.u.u.u.u.u.u.3.+.R C q n I [ ;.u.u.u.u.u.u.u.u.u.u.u.u.u.u.u.u.u.t.u.u.u.u.u.u.u.u.u.u.t.t.u.3.+.R M q n I [ ;.u.u.u.u.u.u.u.u.u.u.y.u.u.",
"q.q.q.q.q.q.q.q.q.q.q.q.q.q.u.q.0.u.3.+.R n q j I [ 3.u.u.q.u.q.q.q.q.q.q.q.q.q.q.q.q.q.q.8.q.q.q.q.q.q.9.9.t.t.t.u.2.+.R n q d I [ <.u.u.t.q.q.q.q.q.q.e.q.e.8.",
";.8.2.2.7.2.7.2.,.3.8.2.8.8.9.9.u.u.2.%.R n q l I ` ;.u.u.8.t.8.,.8.8.7.7.,.,.8.8.7.4.7.2.7.2.2.2.2.,.7.7.7.q.q.0.u.3.+.R M 5 l K ` 3.u.u.t.8.9.4.3.3.8.7.2.,.7.",
";.3.,.,.,.,.,.1.,.,.1.,.,.,.2.9.9.u.3.+.R C q l I [ ;.u.t.t.8.3.,.-.,.,.,.,.1.1.,.,.,.-.,.,.,.,.,.,.,.,.,.,.7.9.t.u.3.+.R M q l K O.;.u.t.8.8.3.1.-.,.,.,.,.,.,.",
"=.=.=.=.%.@.%.%.%.%.%.%.,.,.;.2.u.u.3.+.Y n 8 n I O.;.u.t.8.3.;.-.%.%.-.-.-.-.@.@.-.-.%.-.@.@.-.%.,.%.+.%.,.,.9.q.u.3.+.R M q l K { ;.u.8.t.3.;.%.%.-.-.-.%.@.%.",
"[ o.] ..] | { ..| ..] | ..%.,.,.2.u.3.+.Y n 8 n L ` 3.t.q.3.;.;.| | ] | ..| | | ..| | | | | ..| { ..] ......,.2.q.u.3.+.R M q l K { ;.u.q.6.;.;.| | | | | | ..| ",
"| | | | ..| | | | | | |  .@.-.1.3.9.;.{ Y n q d F _ =.w.7.1.;.=.| | | | | | | | | | | | | | | | | | | | { ..-.,.2.9.3. .K x q x F _ 1.9.3.3.;.=.| | | | | | | | ",
"| | | | | | | | | | | |  . .-.-.;.3.%.] F n 7 x V ^ %.,.1.;.%.%.| | | | | | | | | | | | | | | | | | | | ....%.,.,.3.+.` T x q a C ^ +.,.3.;.=...| | | | | | | | ",
"| | | | | | | | | | | | .. . .-.,.;. .^ V n 7 s S Y ..1.,.%.+...| | | | | | | | | | | | | | | | | | | | ......%.%.,. .^ C x q a C I { ,.,.%.%...| | | | | | | | ",
"| | | | | | | | | | | | |  .@. .%.%.{ Y S z q t V J W %...%.....| | | | | | { | | | | | | | | | | | | | | ] %...o.%.{ T K y q a C K ^ %...%.....| | | | | | | | ",
"| ..| | ....{ ..| | |  .....| | ....^ Z V a 8 p n V T ....| | |  . . . . .{ .... .| ....{ | | ..| ....| { ....| | | W J N w w a n C Y ........| | |  .{ { ....| ",
"W W W W ^ W T W W W W W W ^ W W W W Y A x a 8 t z V F W W W W W W W W W W W W ^ W W W / W W W ^ W W W W W W W W W / W N x a w w d C A W W ^ W W W W W W W W W W ",
"F V J J T Z A K V T A W K A T A Z A A x a a 8 t s n V F A A A J A F A K A T Z A A T A A A W A F Z T A A A F Z T N T N x a a q w a z C J V I A T V T A T A F Z T ",
"V V V V n V V V N x N N x V x N N V x a t t q w t d z V V N N A N N V N A N z Z N N N N x N N N N N V N Z x N N N N x a a w q w a a a V V x V V N N x N Z x N N ",
"p p p a z a a a a a a a a a a a t a a t t 8 8 8 t t a a a a a a a a a a a a a a t a a a a a a a p p a a a a a a a a t i w w 8 q t t p a d d p a a p a a a a a a ",
"8 e 8 8 8 q 8 8 8 8 8 8 q q 8 8 q q q q 8 8 8 8 8 8 8 8 q 8 q q 8 8 q q q q q 8 q 8 q w 8 8 q q 8 e 8 8 q q 8 8 q q 8 8 q q 8 8 8 8 8 8 8 t 8 8 q w 8 8 q w 8 8 ",
"8 8 8 8 8 8 8 8 e 8 8 8 q 8 8 8 8 8 q q 8 8 8 8 8 8 8 8 8 8 8 8 8 8 8 8 q 8 8 8 8 8 q 8 8 8 8 8 w 8 8 8 q 8 8 8 q 8 8 8 q 8 8 8 8 8 8 8 8 8 8 8 q 8 8 8 q 8 8 8 ",
"8 8 8 8 8 8 8 8 8 8 8 8 q 8 8 8 8 8 8 8 8 8 8 8 8 8 8 8 8 8 8 8 8 8 8 8 8 8 8 8 8 8 8 8 8 8 8 8 q 8 8 8 q 8 8 8 q 8 8 8 8 8 8 8 8 8 8 8 8 8 8 8 8 8 8 8 q 8 8 8 "
};
