/* XPM */
static char *_74af2fb1e0242c7c990cdfed8e53850WAPeithniXJQfayd[] = {
/* columns rows colors chars-per-pixel */
"80 80 72 1 ",
"  c #57403F",
". c #59413E",
"X c #534043",
"o c #574040",
"O c #564041",
"+ c #534044",
"@ c #514047",
"# c #534147",
"$ c #5C4343",
"% c #594244",
"& c #584347",
"* c #5D4444",
"= c #5E4547",
"- c #554248",
"; c #5A4448",
": c #5A4449",
"> c #5D4548",
", c #5C454A",
"< c #5F464A",
"1 c #5F474A",
"2 c #604541",
"3 c #604645",
"4 c #634746",
"5 c #664844",
"6 c #674845",
"7 c #674946",
"8 c #6B4A46",
"9 c #6B4B46",
"0 c #614749",
"q c #60474B",
"w c #62484A",
"e c #664949",
"r c #674A4D",
"t c #694A4A",
"y c #6C4B49",
"u c #6F4C48",
"i c #6F4D48",
"p c #6D4C4A",
"a c #6C4C4B",
"s c #6B4C4E",
"d c #6D4D4E",
"f c #714E49",
"g c #724F4B",
"h c #744F4B",
"j c #754F4B",
"k c #714F4C",
"l c #73504F",
"z c #75504D",
"x c #77514C",
"c c #78514C",
"v c #78514D",
"b c #78524D",
"n c #7A524D",
"m c #7B534E",
"M c #7C534E",
"N c #7E554F",
"B c #725050",
"V c #765251",
"C c #795350",
"Z c #7C5451",
"A c #7F5550",
"S c #7E5553",
"D c #805650",
"F c #835752",
"G c #815754",
"H c #845852",
"J c #855853",
"K c #875A54",
"L c #885A54",
"P c #895B55",
"I c #8B5C56",
"U c #8D5D57",
/* pixels */
"@@@&=epxxxxxxxxxxxxxxxxxxxxxxxxxxxxxxxxxxxxxxxxxxxxxxxxxxxxxxxxxxxxxyt0:@@@@@@@@",
"@@@&0epxxxxxxxxxxxxxxxxxxxxxxxxxxxxxxxxxxxxxxxxxxxxxxxxxxxxxxxxxxxxxyt0:@@@@@@@@",
"@@@&=eyxxxxxxxxxxxxxxxxxxxxxxxxxxxxxxxxxxxxxxxxxxxxxxxxxxxxxxxxxxxxxkt0>@@@@@@@@",
"&&&>etpxxxxxxxxxxxxxxxxxxxxxxxxxxxxxxxxxxxxxxxxxxxxxxxxxxxxxxxxxxxxxktt0>:>@@@@@",
">03eepgxxxxxxxxxxxxxxxxxxxxxxxxxxxxxxxxxxxxxxxxxxxxxxxxxxxxxxxxxbbjxjkssr<0>@@@@",
"eeetpagxxxxxxxxxxxxxxxxxxxxxxxxxxxxxxxxxxxxxxxxxxxxxxxxxxxxxxxxxjcbcjjjlBarq,@@@",
"ppppklgxxxxxxxxxxxxxxxxxxxxxxxxxxxxxxxxxxxxxxxxxxxxxxxxxxxxxxxxxxbbjCbCZSVdq,@@@",
"xxxxxbcxxxxxxxxxxxxxxxxxxxxxxxxxxxxxxxxxxxxxxxxxxxxxxxxxxxxxxxxxjccbCFHLUGVd<@@@",
"xxxxxxxxxxxxxxxxxxxxxxxxxxxxxxxxxxxxxxxxxxxxxxxxxxxxxxxxxxxxxxxxxxxxbDFHUGVsq@@@",
"xxxxxxxxxxxxxxxxxxxxxxxxxxxxxxxxxxxxxxxxxxxxxxxxxxxxxxxxxxxxxxxxxxxxMDFKUGVsq@@@",
"xxxxxxxxxxxxxxxxxxxxxxxxxxxxxxxxxxxxxxxxxxxxxxxxxxxxxxxxxxxxxxxxxxxxbDDLUGVsq@@@",
"xxxxxxxxxxxxxxxxxxxxxxxxxxxxxxxxxxxxxxxxxxxxxxxxxxxxxxxxxxxxxxxxxxxxMDHLUGVsq@@@",
"xxxxxxxxxxxxxxxxxxxxxxxxxxxxxxxxxxxxxxxxxxxxxxxxxxxxxxxxxxxxxxxxjbbcCZGKUGVsq@@@",
"xxxxxxxxxxxxxxxxxxxxxxxxxxxxxxxxxxxxxxxxxxxxxxxxxxxxxxxxxxxxxxxxcbjbMZHIUGVsq@@@",
"xxxxxxxxxxxxxxxxxxxxxxxxxxxxxxxxxxxxxxxxxxxxxxxxxxxxxxxxxxxxxxxxjxcbMFFLUGVsq@@@",
"xxxxxxxxxxxxxxxxxxxxxxxxxxxxxxxxxxxxxxxxxxxxxxxxxxxxxxxxxxxxxxxxbbjbbZFLUGVsq@@@",
"xxxxxxxxxxxxxxxxxxxxxxxxxxxxxxxxxxxxxxxxxxxxxxxxxxxxxxxxxxxxxxxxxxxxbDFHUHVsq@@@",
"xxxxxxxxxxxxxxxxxxxxxxxxxxxxxxxxxxxxxxxxxxxxxxxxxxxxxxxxxxxxxxxxxxxxMDFKUHVsq@@@",
"xxxxxxxxxxxxxxxxxxxxxxxxxxxxxxxxxxxxxxxxxxxxxxxxxxxxxxxxxxxxxxxxxxbjbDDLUGVsq@@@",
"xxxxxxxxxxxxxxxxxxxxxxxxxxxxxxxxxxxxxxxxxxxxxxxxxxxxxxxxxxxxxxxxxxcbMDHLUSVsq@@@",
"xxxxxxxxxxxxxxxxxxxxxxxxxxxxxxxxxxxxxxxxxxxxxxxxxxxxxxxxxxxxxxxxcjbbbFFKUGVs0@@@",
"xxxxxxxxxxxxxxxxxxxxxxxxxxxxxxxxxxxxxxxxxxxxxxxxxxxxxxxxxxxxxxxxbxbjMZFKUGVs<@@@",
"xxxxxxxxxxxxxxxxxxxxxxxxxxxxxxxxxxxxxxxxxxxxxxxxxxxxxxxxxxxxxxxxbjbxbFHKUGVsq@@@",
"xxxxxxxxxxxxxxxxxxxxxxxxxxxxxxxxxxxxxxxxxxxxxxxxxxxxxxxxxxxxxxxxbxjjAMHLUGVsq@@@",
"xxxxxxxxxxxxxxxxxxxxxxxxxxxxxxxxxxxxxxxxxxxxxxxxxxxxxxxxxxxxxxxxxxxxbDFHUGVsq@@@",
"xxxxxxxxxxxxxxxxxxxxxxxxxxxxxxxxxxxxxxxxxxxxxxxxxxxxxxxxxxxxxxxxxxxxMDFKUGVsq@@@",
"xxxxxxxxxxxxxxxxxxxxxxxxxxxxxxxxxxxxxxxxxxxxxxxxxxxxxxxxxxxxxxxxxxxxbDDLUGVsq@@@",
"xxxxxxxxxxxxxxxxxxxxxxxxxxxxxxxxxxxxxxxxxxxxxxxxxxxxxxxxxxxxxxxxxxxxMDHLUGVsq@@@",
"xxxxxxxxxxxxxxxxxxxxxxxxxxxxxxxxxxxxxxxxxxxxxxxxxxxxxxxxxxxxxxxxjbbcCZGKUGVsq@@@",
"xxxxxxxxxxxxxxxxxxxxxxxxxxxxxxxxxxxxxxxxxxxxxxxxxxxxxxxxxxxxxxxxcbjbMZHIUGVsq@@@",
"xxxxxxxxxxxxxxxxxxxxxxxxxxxxxxxxxxxxxxxxxxxxxxxxxxxxxxxxxxxxxxxxjxcbMFFLUGVsq@@@",
"xxxxxxxxxxxxxxxxxxxxxxxxxxxxxxxxxxxxxxxxxxxxxxxxxxxxxxxxxxxxxxxxbbjbbZFLUGVsq@@@",
"xxxxxxxxxxxxxxxxxxxxxxxxxxxxxxxxxxxxxxxxxxxxxxxxxxxxxxxxxxxxxxxxxxxxbDFHUHVsq@@@",
"xxxxxxxxxxxxxxxxxxxxxxxxxxxxxxxxxxxxxxxxxxxxxxxxxxxxxxxxxxxxxxxxxxxxMDFKUHVsq@@@",
"xxxxxxxxxxxxxxxxxxxxxxxxxxxxxxxxxxxxxxxxxxxxxxxxxxxxxxxxxxxxxxxxxxbjbDDLUGVsq@@@",
"xxxxxxxxxxxxxxxxxxxxxxxxxxxxxxxxxxxxxxxxxxxxxxxxxxxxxxxxxxxxxxxxxxcbMDHLUSVsq@@@",
"xxxxxxxxxxxxxxxxxxxxxxxxxxxxxxxxxxxxxxxxxxxxxxxxxxxxxxxxxxxxxxxxcjbbbFFKUGVs0@@@",
"xxxxxxxxxxxxxxxxxxxxxxxxxxxxxxxxxxxxxxxxxxxxxxxxxxxxxxxxxxxxxxxxbxbjMZFKUGVs<@@@",
"xxxxxxxxxxxxxxxxxxxxxxxxxxxxxxxxxxxxxxxxxxxxxxxxxxxxxxxxxxxxxxxxbjbxbFHKUGVsq@@@",
"xxxxxxxxxxxxxxxxxxxxxxxxxxxxxxxxxxxxxxxxxxxxxxxxxxxxxxxxxxxxxxxxbxjjAMHLUGVsq@@@",
"xxxxxxxxxxxxxxxxxxxxxxxxxxxxxxxxxxxxxxxxxxxxxxxxxxxxxxxxxxxxxxxxxxxxbDFHUGVsq@@@",
"xxxxxxxxxxxxxxxxxxxxxxxxxxxxxxxxxxxxxxxxxxxxxxxxxxxxxxxxxxxxxxxxxxxxMDFKUGVsq@@@",
"xxxxxxxxxxxxxxxxxxxxxxxxxxxxxxxxxxxxxxxxxxxxxxxxxxxxxxxxxxxxxxxxxxxxbDDLUGVsq@@@",
"xxxxxxxxxxxxxxxxxxxxxxxxxxxxxxxxxxxxxxxxxxxxxxxxxxxxxxxxxxxxxxxxxxxxMDHLUGVsq@@@",
"xxxxxxxxxxxxxxxxxxxxxxxxxxxxxxxxxxxxxxxxxxxxxxxxxxxxxxxxxxxxxxxxjbbcCZGKUGVsq@@@",
"xxxxxxxxxxxxxxxxxxxxxxxxxxxxxxxxxxxxxxxxxxxxxxxxxxxxxxxxxxxxxxxxcbjbMZHIUGVsq@@@",
"xxxxxxxxxxxxxxxxxxxxxxxxxxxxxxxxxxxxxxxxxxxxxxxxxxxxxxxxxxxxxxxxjxcbMFFLUGVsq@@@",
"xxxxxxxxxxxxxxxxxxxxxxxxxxxxxxxxxxxxxxxxxxxxxxxxxxxxxxxxxxxxxxxxbbjbbZFLUGVsq@@@",
"xxxxxxxxxxxxxxxxxxxxxxxxxxxxxxxxxxxxxxxxxxxxxxxxxxxxxxxxxxxxxxxxxxxxbDFHUHVsq@@@",
"xxxxxxxxxxxxxxxxxxxxxxxxxxxxxxxxxxxxxxxxxxxxxxxxxxxxxxxxxxxxxxxxxxxxMDFKUHVsq@@@",
"xxxxxxxxxxxxxxxxxxxxxxxxxxxxxxxxxxxxxxxxxxxxxxxxxxxxxxxxxxxxxxxxxxxxbDDLUGVsq@@@",
"xxxxxxxxxxxxxxxxxxxxxxxxxxxxxxxxxxxxxxxxxxxxxxxxxxxxxxxxxxxxxxxxxxxxMDHLUSVsq@@@",
"xxxxxxxxxxxxxxxxxxxxxxxxxxxxxxxxxxxxxxxxxxxxxxxxxxxxxxxxxxxxxxxxxxxxCAHKUGVs0@@@",
"xxxxxxxxxxxxxxxxxxxxxxxxxxxxxxxxxxxxxxxxxxxxxxxxxxxxxxxxxxxxxxxxxxxxbAHKUGVs<@@@",
"xxxxxxxxxxxxxxxxxxxxxxxxxxxxxxxxxxxxxxxxxxxxxxxxxxxxxxxxxxxxxxxxbxbbMFKLUGVsq@@@",
"xxxxxxxxxxxxxxxxxxxxxxxxxxxxxxxxxxxxxxxxxxxxxxxxxxxxxxxxxxxxxxxxbbjbbMMIUGVsq@@@",
"xxxxxxxxxxxxxxxxxxxxxxxxxxxxxxxxxxxxxxxxxxxxxxxxxxxxxxxxxxxxxxxxxxxxbFHHUGVsq@@@",
"xxxxxxxxxxxxxxxxxxxxxxxxxxxxxxxxxxxxxxxxxxxxxxxxxxxxxxxxxxxxxxxxxxxxbMFKUGVsq@@@",
"xxxxxxxxxxxxxxxxxxxxxxxxxxxxxxxxxxxxxxxxxxxxxxxxxxxxxxxxxxxxxxxxxxxxAMHKUGVsq@@@",
"xxxxxxxxxxxxxxxxxxxxxxxxxxxxxxxxxxxxxxxxxxxxxxxxxxxxxxxxxxxxxxxxxxxxbFHLUGVsq@@@",
"xxxxxxxxxxxxxxxxxxxxxxxxxxxxxxxxxxxxxxxxxxxxxxxxxxxxxxxxxxxxxxxxxxxxbAHKUGVsq@@@",
"xxxxxxxxxxxxxxxxxxxxxxxxxxxxxxxxxxxxxxxxxxxxxxxxxxxxxxxxxxxxxxxxxxxxnAFKUGVsq@@@",
"xxxxxxxxxxxxxxxxxxxxxxxxxxxxxxxxxxxxxxxxxxxxxxxxxxxxxxxxxxxxxxxxbxxxAAKKUGVsq@@@",
"xxxxxxxxxxxxxxxxxxxxxxxxxxxxxxxxxxxxxxxxxxxxxxxxxxxxxxxxxxxxxxxxbbbbAAGUUGVsq@@@",
"xxxxxxxxxxxxxxxxxxxxxxxxxxxxxxxxxxxxxxxxxxxxxxxxxxxxxxxxxxxxxxxxbAAHNHKKUGVsq@@@",
"xxxxxxxxxxxxxxxxxxxxxxxxxxxxxxxxxxxxxxxxxxxxxxxxxxxxxxxxxxxxxxbbbAAAHKIKUGVsq@@@",
"xxxxxxxxxxxxxxxxxxxxxxxxxxxxxxxxxxxxxxxxxxxxxxxxxxxxxxxxxxxxxxxnMAHKPKIIUGVsq@@@",
"xxxxxxxxxxxxxxxxxxxxxxxxxxxxxxxxxxxxxxxxxxxxxxxxxxxxxxxxxxxxxxxnAHKUUUUIUSVaq@@@",
"uugjgxxMnnZnnMnAnMnZnnbZnZnbbnMnnnZnnMnnnnnnZnbnnZnbZnnnnnZnnMnMDHHUIPHPHnae=@@@",
"888ujjnMAAAAAMAMAAAAAAAAAAAAAAAFAAAAAAAMAAAAAAAAAAAAAAAFAAAAAMAFHHUUKKDDxlaw&@@@",
"5558gxMHHHHHHHHHHHHHHHHFHHFFFFHFHHHHHHHHGHHHHHHHHHFFFFHHHHHHHHHHKPUUKHMbu95=@@@@",
"22$8ybMKKKHKKKLHKKKKKKKKKKKKKKKKKKKKKKIHKKKKKKKKKKKKKKKKKKKKKKIHPHUUHMcp9$=>&@@@",
"...29xAUUUUUUUUUUUUUUUUUUUIUUIUUIUUIUUIIUIUUUUUUUUUUUUUIUUUUIUUIUUUUHx9u.  @X@@@",
".. 35pbHHFFFHHHHFFHHHHHHFFHHHHFHHHHHHHHHHHHHFFHHFFFFHHHHHHFHHHHHHHHHxlp$   X@@@@",
"OO $58zbxxxxMnxxcbMcbbcbxxxxbMxxnncnbnxnbbMccbMcxnxxnnnMnnbbnnnnxxxbz88$  XXX@@@",
"XXO%=388uz9luupug8uug8gul8zuu8gpuuuu9g9zg8uug8uupu9l9uuu9upu9lu9uuuz95=$@XX@@@@@",
"X@X@&$=55555555555555555555555555555555555555555555555559555555555555$&%X@X@@@@@",
"@O@@O. ..............................................................OX@@@@@@@@@",
"@@@X@X .............................................................  @O@@@@@@@@",
"@@@@%  ............................................................. OO@@@@@@@@@"
};
